<?xml version="1.0" encoding="utf-8"?>
<!-- Generator: Adobe Illustrator 17.1.0, SVG Export Plug-In . SVG Version: 6.00 Build 0)  -->
<!DOCTYPE svg PUBLIC "-//W3C//DTD SVG 1.1//EN" "http://www.w3.org/Graphics/SVG/1.1/DTD/svg11.dtd">
<svg version="1.1" xmlns="http://www.w3.org/2000/svg" xmlns:xlink="http://www.w3.org/1999/xlink" x="0px" y="0px"
	 viewBox="0 0 60 38" style="enable-background:new 0 0 60 38;" xml:space="preserve">
<style type="text/css">
	.st0{display:none;}
	.st1{display:inline;}
	.st2{fill:url(#SVGID_1_);}
	.st3{fill:#DCDCDC;}
	.st4{fill:#075DA1;}
	.st5{fill:#F2A636;}
	.st6{fill-rule:evenodd;clip-rule:evenodd;fill:#FFFFFF;}
	.st7{fill-rule:evenodd;clip-rule:evenodd;fill:#0067B3;}
	.st8{fill-rule:evenodd;clip-rule:evenodd;fill:#F9A51A;}
	.st9{fill-rule:evenodd;clip-rule:evenodd;fill:#EC1C24;}
	.st10{display:inline;fill-rule:evenodd;clip-rule:evenodd;fill:#005A9B;}
	.st11{fill-rule:evenodd;clip-rule:evenodd;fill:#FAA929;}
	.st12{display:inline;fill-rule:evenodd;clip-rule:evenodd;fill:#003473;}
	.st13{fill-rule:evenodd;clip-rule:evenodd;fill:#FCB131;}
	.st14{fill-rule:evenodd;clip-rule:evenodd;fill:#ED1C2E;}
	.st15{fill-rule:evenodd;clip-rule:evenodd;fill:#003473;}
	.st16{fill-rule:evenodd;clip-rule:evenodd;fill:#009DDD;}
	.st17{fill:url(#SVGID_2_);}
	.st18{fill:#FFFFFF;}
</style>
<g id="Visa" class="st0">
	<g class="st1">
		<linearGradient id="SVGID_1_" gradientUnits="userSpaceOnUse" x1="29.5" y1="38" x2="29.5" y2="1">
			<stop  offset="0" style="stop-color:#F2F2F2"/>
			<stop  offset="1" style="stop-color:#FFFFFF"/>
		</linearGradient>
		<rect y="1" class="st2" width="59" height="37"/>
		<path class="st3" d="M59,1v36H1V1H59 M60,0H0v38h60V0L60,0z"/>
	</g>
	<g class="st1">
		<path class="st4" d="M21.4,12.7l-3.3,8.8l-0.3-1.8c-0.8-2.2-2.3-4-4.6-5.4l3,11.2l3.5,0L25,12.7H21.4z"/>
		<polygon class="st4" points="24.2,25.7 26.3,12.7 29.7,12.7 27.6,25.7 		"/>
		<path class="st4" d="M39.7,13c-0.7-0.3-1.7-0.5-3-0.5c-3.3,0-5.6,1.8-5.6,4.3c0,1.9,1.7,2.9,2.9,3.5c1.3,0.6,1.7,1,1.7,1.6
			c0,0.9-1,1.3-2,1.3c-1.3,0-2-0.2-3.1-0.7l-0.4-0.2l-0.5,2.9c0.8,0.4,2.2,0.7,3.7,0.7c3.5,0,5.8-1.7,5.8-4.4c0-1.5-0.9-2.6-2.8-3.5
			c-1.2-0.6-1.9-1-1.9-1.6c0-0.5,0.6-1.1,1.9-1.1c1.1,0,1.9,0.2,2.5,0.5l0.3,0.1L39.7,13z"/>
		<path class="st4" d="M44.1,21.1c0.3-0.7,1.3-3.6,1.3-3.6c0,0,0.3-0.7,0.4-1.2l0.2,1.1c0,0,0.6,3.1,0.8,3.7
			C46.4,21.1,44.8,21.1,44.1,21.1z M48.2,12.7h-2.6c-0.8,0-1.4,0.2-1.7,1.1l-5,11.8h3.5c0,0,0.6-1.6,0.7-1.9c0.4,0,3.8,0,4.3,0
			c0.1,0.4,0.4,1.9,0.4,1.9h3.1L48.2,12.7z"/>
		<path class="st5" d="M15.1,12.7H9.8l0,0.3c4.2,1.1,7,3.7,8.1,6.8l-1.2-5.9C16.5,13,15.9,12.8,15.1,12.7z"/>
	</g>
</g>
<g id="Delta" class="st0">
	<g class="st1">
		<rect x="0.3" y="-0.1" class="st6" width="59.8" height="38.2"/>
		<polygon class="st7" points="60,-0.1 3.7,-0.1 60,34.7 		"/>
		<polygon class="st8" points="0.3,19.1 30.8,19.1 30.8,37.8 0.3,19.1 		"/>
		<polygon class="st9" points="0,28.6 15.3,28.6 15.3,38.1 0,28.6 		"/>
		<path class="st6" d="M24.7,10.9h3.1c2.3,0,3.6-1.3,3.6-3.6S30,3.8,27.7,3.8h-3.1V10.9L24.7,10.9z M26.4,5.3h1c1.3,0,2,0.5,2,2
			c0,1.3-0.8,1.8-2,1.8h-1V5.3L26.4,5.3z"/>
		<polygon class="st6" points="32.8,10.9 38.7,10.9 38.7,9.1 34.6,9.1 34.6,7.9 38.1,7.9 38.1,6.3 34.6,6.3 34.6,5.3 38.4,5.3 
			38.4,3.8 32.8,3.8 32.8,10.9 		"/>
		<polygon class="st6" points="40.2,10.9 45.3,10.9 45.3,9.1 42,9.1 42,3.8 40.2,3.8 40.2,10.9 		"/>
		<polygon class="st6" points="51.1,3.8 45,3.8 45,5.3 47.1,5.3 47.1,10.9 49.1,10.9 49.1,5.3 51.1,5.3 51.1,3.8 		"/>
		<path class="st6" d="M54.4,5.8L54.4,5.8l0.8,2.3h-1.5L54.4,5.8L54.4,5.8z M50.9,10.9h1.8l0.5-1.3h2.5l0.5,1.3H58l-2.5-7.2h-2
			L50.9,10.9L50.9,10.9z"/>
	</g>
</g>
<g id="Visa_electron" class="st0">
	<polygon class="st10" points="0,0 0,38 60,38 60,0 0,0 	"/>
	<g class="st1">
		<path class="st11" d="M17.1,22.1c6-2.6,14.4-4.9,25.5-2.6l0.1-2.8c-11.7-1.3-20.2,2.5-25.6,5.1V22.1L17.1,22.1z"/>
		<polygon class="st6" points="6.3,24.2 11.9,24.2 11.9,25.9 8.4,25.9 8.4,27.5 11.9,27.5 11.9,29.1 8.4,29.1 8.4,30.7 11.8,30.7 
			11.8,32.4 6.3,32.4 6.3,24.2 		"/>
		<polygon class="st6" points="13.3,23.5 15.4,23.5 15.4,32.4 13.3,32.4 13.3,23.5 		"/>
		<path class="st6" d="M22.4,31.7c-0.7,0.6-1.8,0.9-2.7,0.9c-2.2,0-3.1-1.5-3.1-3.1c0-1.8,1.3-3.3,3.2-3.3c2.3,0,3,1.6,3,3.6h-4.1
			c0,0.5,0.3,1.2,1.4,1.2c0.7,0,1.1-0.2,1.7-0.6L22.4,31.7L22.4,31.7z M20.9,28.7c0-0.6-0.3-1.2-1-1.2c-0.6,0-1.1,0.6-1.3,1.2H20.9
			L20.9,28.7z"/>
		<path class="st6" d="M29,32c-0.6,0.4-1.5,0.6-2.2,0.6c-1.9,0-3.2-1.1-3.2-3c0-2,1.3-3.3,3.4-3.3c0.7,0,1.6,0.2,2,0.5l-0.7,1.3
			c-0.3-0.1-0.6-0.2-1-0.2c-1,0-1.7,0.6-1.7,1.6c0,0.9,0.7,1.5,1.5,1.5c0.4,0,0.8-0.2,1.1-0.3L29,32L29,32z"/>
		<path class="st6" d="M29.8,26.4h0.9l0-2h2l0,2h1.7l0,1.5h-1.7c0,0.8-0.1,1.7-0.1,2.2c0,0.5,0.1,0.8,0.6,0.8c0.3,0,0.5-0.1,0.8-0.3
			l0.4,1.4c-0.6,0.4-1.3,0.6-2,0.6c-1.7,0-1.7-1.1-1.7-2.4c0-0.7,0.1-1.5,0.1-2.3h-0.9L29.8,26.4L29.8,26.4z"/>
		<path class="st6" d="M35.4,26.4h2.1v0.8h0c0.3-0.5,0.7-1,1.5-1c0.2,0,0.5,0,0.7,0.1l-0.3,2c-0.2-0.1-0.4-0.1-0.7-0.1
			c-0.7,0-1.2,0.6-1.2,0.7l0,3.4h-2.1L35.4,26.4L35.4,26.4z"/>
		<path class="st6" d="M43.3,26.2c2.2,0,3.3,1.4,3.3,3.2c0,1.8-1.1,3.2-3.3,3.2c-2.2,0-3.3-1.4-3.3-3.2C40,27.6,41.2,26.2,43.3,26.2
			L43.3,26.2z M43.3,31c1,0,1.3-0.9,1.3-1.6c0-0.8-0.3-1.6-1.3-1.6c-1,0-1.3,0.9-1.3,1.6C42.1,30.2,42.4,31,43.3,31L43.3,31z"/>
		<path class="st6" d="M47.8,26.4h2.1v0.6c0.5-0.5,1.2-0.9,1.9-0.9c1.3,0,1.9,0.7,1.9,2.3c0,1.2,0,2.5,0,3.8h-2.1c0-1.1,0-2.3,0-3.5
			c0-0.5-0.1-0.9-0.7-0.9c-0.3,0-0.8,0.3-1.1,0.5l0,3.8h-2.1L47.8,26.4L47.8,26.4z"/>
		<polygon class="st6" points="23.2,14.2 25.8,5.6 28.1,5.6 25.5,14.2 23.2,14.2 		"/>
		<path class="st6" d="M22.1,5.6L20,9.2c-0.5,1-0.8,1.4-1,2h0c0-0.8-0.1-1.7-0.1-2.2l-0.2-3.4h-3.9l0,0.2c1,0,1.6,0.5,1.8,1.5
			l0.8,6.8h2.4l4.9-8.6H22.1L22.1,5.6z"/>
		<path class="st6" d="M40.1,14.2l-0.1-1.3l-2.9,0l-0.6,1.3h-2.5l4.6-8.5h3.1l0.8,8.5H40.1L40.1,14.2z M39.9,9.1c0-0.6,0-1.5,0-2h0
			c-0.1,0.4-0.7,1.7-1,2.3L38,11.3l2,0L39.9,9.1L39.9,9.1z"/>
		<path class="st6" d="M30.5,14.4c-1.6,0-2.7-0.5-3.5-1l1.1-1.7c0.7,0.4,1.2,0.8,2.5,0.8c0.4,0,0.8-0.1,1-0.5c0.3-0.6-0.1-0.9-1-1.4
			l-0.4-0.3c-1.3-0.9-1.9-1.8-1.3-3.3c0.4-1,1.5-1.7,3.2-1.7c1.2,0,2.3,0.5,3,1l-1.3,1.5c-0.6-0.5-1.2-0.8-1.8-0.8
			c-0.5,0-0.9,0.2-1,0.4c-0.2,0.5,0.1,0.8,0.8,1.2l0.5,0.3c1.6,1,2,2.1,1.6,3.1C33.3,14,31.9,14.4,30.5,14.4L30.5,14.4z"/>
	</g>
</g>
<g id="mastercard" class="st0">
	<polygon class="st12" points="60,38.2 60,0.2 0,0.2 0,38.2 60,38.2 	"/>
	<g class="st1">
		<path class="st13" d="M30,29.9c2.6,2.3,5.9,3.7,9.7,3.7c8,0,14.4-6.5,14.4-14.5c0-8-6.4-14.5-14.4-14.5c-3.7,0-7.1,1.4-9.7,3.7
			c-2.9,2.7-4.7,6.5-4.7,10.7C25.3,23.4,27.1,27.3,30,29.9L30,29.9z"/>
		<path class="st13" d="M52.2,27.3c0-0.3,0.2-0.5,0.5-0.5c0.3,0,0.5,0.2,0.5,0.5c0,0.3-0.2,0.5-0.5,0.5
			C52.4,27.7,52.2,27.5,52.2,27.3L52.2,27.3z M52.6,27.6c0.2,0,0.4-0.2,0.4-0.4c0-0.2-0.2-0.4-0.4-0.4c-0.2,0-0.4,0.2-0.4,0.4
			C52.3,27.5,52.4,27.6,52.6,27.6L52.6,27.6z M52.6,27.5L52.6,27.5l-0.1-0.4h0.2c0,0,0.1,0,0.1,0c0,0,0.1,0.1,0.1,0.1
			c0,0,0,0.1-0.1,0.1l0.1,0.2h-0.1l-0.1-0.2h-0.1V27.5v-0.2h0.1c0,0,0,0,0.1,0c0,0,0,0,0,0c0,0,0,0,0,0c0,0,0,0-0.1,0h-0.1v0.1V27.5
			L52.6,27.5z"/>
		<path class="st14" d="M34.7,17.7c-0.1-0.5-0.1-1-0.2-1.5h-8.8c0.1-0.5,0.3-1,0.4-1.5h8c-0.2-0.5-0.4-1-0.6-1.5h-6.8
			c0.2-0.5,0.5-1,0.8-1.5h5.1c-0.3-0.5-0.7-1-1.1-1.5h-2.9C29,9.4,29.5,8.9,30,8.5c-2.6-2.3-5.9-3.7-9.7-3.7C12.4,4.7,6,11.2,6,19.2
			c0,8,6.4,14.5,14.4,14.5c3.7,0,7.1-1.4,9.7-3.7l0,0h0c0.5-0.5,1-1,1.5-1.5h-2.9c-0.4-0.5-0.8-1-1.1-1.5h5.1c0.3-0.5,0.6-1,0.8-1.5
			h-6.8c-0.2-0.5-0.4-1-0.6-1.5h8c0.2-0.5,0.3-1,0.4-1.5c0.1-0.5,0.2-1,0.2-1.5c0.1-0.5,0.1-1,0.1-1.5
			C34.7,18.7,34.7,18.2,34.7,17.7L34.7,17.7z"/>
		<path class="st6" d="M52.2,22.5c0-0.3,0.2-0.5,0.5-0.5c0.3,0,0.5,0.2,0.5,0.5c0,0.3-0.2,0.5-0.5,0.5C52.4,23,52.2,22.8,52.2,22.5
			L52.2,22.5z M52.6,22.9c0.2,0,0.4-0.2,0.4-0.4c0-0.2-0.2-0.4-0.4-0.4c-0.2,0-0.4,0.2-0.4,0.4C52.3,22.7,52.4,22.9,52.6,22.9
			L52.6,22.9z M52.6,22.8L52.6,22.8l-0.1-0.4h0.2c0,0,0.1,0,0.1,0c0,0,0.1,0.1,0.1,0.1c0,0,0,0.1-0.1,0.1l0.1,0.2h-0.1l-0.1-0.2
			h-0.1V22.8v-0.2h0.1c0,0,0,0,0.1,0c0,0,0,0,0,0c0,0,0,0,0,0c0,0,0,0-0.1,0h-0.1v0.1V22.8L52.6,22.8z"/>
		<path class="st15" d="M25.1,23.4c-0.5,0.1-0.8,0.2-1.2,0.2c-0.7,0-1.2-0.5-1.2-1.3c0-0.2,0-0.3,0-0.5l0.1-0.6l0.1-0.5l0.7-4.1h1.5
			L25,17.5h0.9L25.7,19h-0.9l-0.4,2.4c0,0.1,0,0.2,0,0.2c0,0.3,0.2,0.4,0.5,0.4c0.2,0,0.3,0,0.5-0.1L25.1,23.4L25.1,23.4z"/>
		<path class="st15" d="M29.9,23.3c-0.5,0.2-1.1,0.2-1.6,0.2c-1.7,0-2.7-0.9-2.7-2.7c0-2.1,1.2-3.6,2.7-3.6c1.3,0,2.1,0.8,2.1,2.2
			c0,0.4-0.1,0.9-0.2,1.5h-3.1c0,0.1,0,0.1,0,0.2c0,0.7,0.5,1,1.4,1c0.6,0,1.1-0.1,1.6-0.4L29.9,23.3L29.9,23.3z M29,19.8
			c0-0.1,0-0.2,0-0.3c0-0.5-0.3-0.8-0.7-0.8c-0.5,0-0.9,0.4-1,1.1L29,19.8L29,19.8z"/>
		<polygon class="st15" points="13.2,23.4 11.6,23.4 12.5,17.8 10.5,23.4 9.5,23.4 9.3,17.8 8.4,23.4 6.9,23.4 8.1,16.1 10.3,16.1 
			10.4,20.6 11.9,16.1 14.4,16.1 13.2,23.4 		"/>
		<path class="st15" d="M16.9,20.8c-0.2,0-0.2,0-0.3,0c-0.9,0-1.3,0.3-1.3,0.9c0,0.4,0.2,0.6,0.6,0.6C16.6,22.3,16.9,21.7,16.9,20.8
			L16.9,20.8z M18.2,23.4h-1.4l0-0.6c-0.3,0.5-0.8,0.7-1.6,0.7c-0.8,0-1.4-0.7-1.4-1.6c0-0.3,0.1-0.5,0.1-0.8
			c0.2-0.9,1.2-1.5,2.6-1.5c0.2,0,0.5,0,0.7,0c0-0.2,0.1-0.3,0.1-0.4c0-0.4-0.3-0.5-1.1-0.5c-0.4,0-0.9,0.1-1.3,0.2L14.7,19l-0.1,0
			l0.2-1.3c0.7-0.2,1.2-0.3,1.8-0.3c1.3,0,2.1,0.6,2.1,1.8c0,0.3,0,0.5-0.1,1.2l-0.3,2.1l-0.1,0.4l0,0.3l0,0.2L18.2,23.4L18.2,23.4z
			"/>
		<path class="st15" d="M37.5,17.5c0.4,0,0.8,0.1,1.4,0.4l0.3-1.6c-0.1-0.1-0.2-0.1-0.4-0.1L38.1,16c-0.2-0.1-0.4-0.1-0.7-0.1
			c-0.8,0-1.2,0-1.7,0.3c-0.3,0.2-0.6,0.4-0.9,0.8L34.6,17L33,18.1l0.1-0.6h-1.7l-1,6H32l0.6-3.2c0,0,0.2-0.4,0.3-0.6
			c0.3-0.4,0.5-0.4,0.9-0.4c0,0,0.1,0,0.1,0c0,0.3-0.1,0.7-0.1,1.1c0,2,1.1,3.2,2.8,3.2c0.4,0,0.8-0.1,1.4-0.2l0.3-1.7
			c-0.5,0.3-0.9,0.4-1.3,0.4c-0.9,0-1.5-0.7-1.5-1.8C35.5,18.7,36.3,17.5,37.5,17.5L37.5,17.5z"/>
		<path class="st15" d="M50.7,16.1l-0.3,2.1c-0.4-0.6-0.8-0.8-1.4-0.8c-0.8,0-1.6,0.5-2.1,1.4l0,0l-1-0.6l0.1-0.6h-1.7l-1,6h1.6
			l0.5-3.2c0,0,0.4-0.4,0.5-0.6c0.2-0.3,0.5-0.4,0.7-0.4c-0.2,0.5-0.3,1.1-0.3,1.8c0,1.5,0.8,2.5,1.9,2.5c0.6,0,1-0.2,1.4-0.7
			l-0.1,0.6h1.5l1.2-7.3H50.7L50.7,16.1z M48.8,22c-0.5,0-0.8-0.4-0.8-1.2c0-1.2,0.5-2,1.2-2c0.5,0,0.8,0.4,0.8,1.2
			C50,21.2,49.5,22,48.8,22L48.8,22z"/>
		<path class="st15" d="M41.6,20.8c-0.2,0-0.2,0-0.3,0c-0.9,0-1.3,0.3-1.3,0.9c0,0.4,0.2,0.6,0.6,0.6C41.2,22.3,41.5,21.7,41.6,20.8
			L41.6,20.8z M42.8,23.4h-1.4l0-0.6c-0.3,0.5-0.8,0.7-1.6,0.7c-0.8,0-1.4-0.7-1.4-1.6c0-1.4,1.1-2.3,2.8-2.3c0.2,0,0.5,0,0.7,0
			c0-0.2,0.1-0.3,0.1-0.4c0-0.4-0.3-0.5-1.1-0.5c-0.4,0-0.9,0.1-1.3,0.2L39.3,19l-0.1,0l0.2-1.3c0.7-0.2,1.2-0.3,1.8-0.3
			c1.3,0,2.1,0.6,2.1,1.8c0,0.3,0,0.5-0.1,1.2l-0.3,2.1l-0.1,0.4l0,0.3l0,0.2L42.8,23.4L42.8,23.4z"/>
		<path class="st15" d="M21.4,18.7c0.3,0,0.7,0,1.2,0.1l0.2-1.4c-0.5-0.1-1-0.1-1.4-0.1c-1.7,0-2.3,0.9-2.3,2c0,0.7,0.3,1.2,1.2,1.6
			c0.6,0.3,0.7,0.4,0.7,0.6c0,0.4-0.3,0.6-0.9,0.6c-0.5,0-0.9-0.1-1.4-0.2l-0.2,1.4l0,0l0.3,0.1c0.1,0,0.2,0,0.4,0.1
			c0.4,0,0.7,0.1,0.9,0.1c1.7,0,2.5-0.7,2.5-2c0-0.8-0.4-1.3-1.2-1.7c-0.7-0.3-0.7-0.3-0.7-0.6C20.7,19,21,18.8,21.4,18.7L21.4,18.7
			z"/>
		<path class="st6" d="M39.5,15.9l-0.3,1.6c-0.6-0.3-1-0.4-1.4-0.4c-1.2,0-2,1.1-2,2.8c0,1.1,0.5,1.8,1.5,1.8c0.4,0,0.8-0.1,1.3-0.4
			l-0.3,1.7c-0.6,0.2-0.9,0.2-1.4,0.2c-1.7,0-2.7-1.2-2.7-3.2c0-2.6,1.4-4.5,3.5-4.5c0.3,0,0.5,0,0.7,0.1l0.6,0.2
			C39.4,15.8,39.4,15.8,39.5,15.9L39.5,15.9z"/>
		<path class="st6" d="M34.5,17c0,0-0.1,0-0.2,0c-0.5,0-0.8,0.3-1.3,1l0.1-0.9h-1.4l-1,6h1.6c0.6-3.7,0.7-4.3,1.5-4.3
			c0,0,0.1,0,0.1,0C34.1,18,34.3,17.5,34.5,17L34.5,17L34.5,17z"/>
		<path class="st6" d="M25.5,22.9c-0.4,0.1-0.8,0.2-1.1,0.2c-0.8,0-1.2-0.5-1.2-1.3c0-0.2,0-0.3,0-0.5l0.1-0.6l0.1-0.5l0.7-4.1h1.6
			L25.4,17h0.8L26,18.5h-0.8L24.8,21c0,0.1,0,0.2,0,0.2c0,0.3,0.2,0.4,0.5,0.4c0.2,0,0.3,0,0.4-0.1L25.5,22.9L25.5,22.9z"/>
		<path class="st6" d="M19.5,18.9c0,0.8,0.4,1.3,1.2,1.7c0.6,0.3,0.7,0.4,0.7,0.7c0,0.4-0.3,0.5-0.9,0.5c-0.5,0-0.9-0.1-1.4-0.2
			l-0.2,1.4l0.1,0l0.3,0.1c0.1,0,0.2,0,0.4,0.1c0.4,0,0.7,0.1,0.9,0.1c1.6,0,2.4-0.6,2.4-2c0-0.8-0.3-1.3-1.1-1.7
			c-0.7-0.3-0.7-0.4-0.7-0.6c0-0.3,0.3-0.5,0.8-0.5c0.3,0,0.7,0,1.1,0.1l0.2-1.4c-0.4-0.1-1-0.1-1.4-0.1
			C20.1,16.9,19.5,17.8,19.5,18.9L19.5,18.9z"/>
		<path class="st6" d="M51.5,23H50l0.1-0.6c-0.4,0.5-0.9,0.7-1.4,0.7c-1.1,0-1.9-1-1.9-2.5c0-2,1.2-3.7,2.5-3.7
			c0.6,0,1.1,0.3,1.5,0.8l0.3-2.1h1.5L51.5,23L51.5,23z M49.2,21.6c0.7,0,1.2-0.8,1.2-2c0-0.8-0.3-1.2-0.8-1.2c-0.7,0-1.2,0.8-1.2,2
			C48.4,21.2,48.6,21.6,49.2,21.6L49.2,21.6z"/>
		<path class="st6" d="M30.3,22.9c-0.5,0.2-1.1,0.2-1.6,0.2c-1.7,0-2.7-0.9-2.7-2.7c0-2.1,1.2-3.6,2.7-3.6c1.3,0,2.1,0.8,2.1,2.2
			c0,0.4-0.1,0.9-0.2,1.5h-3.1c0,0.1,0,0.1,0,0.2c0,0.7,0.5,1,1.4,1c0.6,0,1.1-0.1,1.6-0.4L30.3,22.9L30.3,22.9z M29.4,19.3
			c0-0.1,0-0.2,0-0.3c0-0.5-0.3-0.8-0.7-0.8c-0.5,0-0.9,0.4-1,1.1L29.4,19.3L29.4,19.3z"/>
		<polygon class="st6" points="13.6,23 12,23 12.9,17.3 10.9,23 9.9,23 9.7,17.4 8.8,23 7.3,23 8.5,15.6 10.8,15.6 10.9,20.2 
			12.4,15.6 14.8,15.6 13.6,23 		"/>
		<path class="st6" d="M17.4,20.3c-0.2,0-0.2,0-0.3,0c-0.9,0-1.3,0.3-1.3,0.9c0,0.4,0.2,0.6,0.6,0.6C17,21.8,17.4,21.2,17.4,20.3
			L17.4,20.3z M18.6,23h-1.3l0-0.6c-0.4,0.5-0.9,0.7-1.6,0.7c-0.8,0-1.4-0.7-1.4-1.6c0-1.5,1-2.3,2.7-2.3c0.2,0,0.4,0,0.6,0
			c0-0.2,0.1-0.3,0.1-0.4c0-0.4-0.3-0.5-1-0.5c-0.4,0-1,0.1-1.3,0.2l-0.2,0.1l-0.1,0l0.2-1.3c0.8-0.2,1.3-0.3,1.9-0.3
			c1.3,0,2.1,0.6,2.1,1.8c0,0.3,0,0.5-0.1,1.2l-0.3,2.1l-0.1,0.4l0,0.3l0,0.2L18.6,23L18.6,23z"/>
		<path class="st6" d="M42.1,20.3c-0.2,0-0.2,0-0.3,0c-0.9,0-1.3,0.3-1.3,0.9c0,0.4,0.2,0.6,0.6,0.6C41.6,21.8,42,21.2,42.1,20.3
			L42.1,20.3z M43.2,23h-1.3l0-0.6c-0.4,0.5-0.9,0.7-1.6,0.7c-0.8,0-1.4-0.7-1.4-1.6c0-1.5,1-2.3,2.7-2.3c0.2,0,0.4,0,0.6,0
			c0-0.2,0.1-0.3,0.1-0.4c0-0.4-0.3-0.5-1-0.5c-0.4,0-0.9,0.1-1.3,0.2l-0.2,0.1l-0.1,0l0.2-1.3c0.8-0.2,1.3-0.3,1.9-0.3
			c1.3,0,2.1,0.6,2.1,1.8c0,0.3,0,0.5-0.1,1.2l-0.3,2.1l-0.1,0.4l0,0.3l0,0.2L43.2,23L43.2,23z"/>
		<path class="st6" d="M47.4,17c0,0-0.1,0-0.2,0c-0.5,0-0.8,0.3-1.3,1l0.1-0.9h-1.4l-1,6h1.6c0.6-3.7,0.7-4.3,1.5-4.3c0,0,0,0,0.1,0
			C47,18,47.2,17.5,47.4,17L47.4,17L47.4,17z"/>
	</g>
</g>
<g id="Maestro" class="st0">
	<polygon class="st12" points="0,38.1 60,38.1 60,0.1 0,0.1 0,38.1 	"/>
	<g class="st1">
		<path class="st16" d="M30,29.5c2.8-2.6,4.6-6.3,4.6-10.4S32.8,11.3,30,8.7c-2.5-2.2-5.8-3.6-9.4-3.6c-7.7,0-14,6.3-14,14
			c0,7.7,6.3,14,14,14C24.2,33.1,27.5,31.7,30,29.5L30,29.5z"/>
		<path class="st16" d="M30,29.5c2.8-2.6,4.6-6.3,4.6-10.4S32.8,11.3,30,8.7V29.5L30,29.5z"/>
		<path class="st14" d="M39.4,5.1c-3.6,0-6.9,1.4-9.4,3.6c-0.5,0.5-1,1-1.4,1.5h2.8c0.4,0.5,0.7,1,1.1,1.5h-5
			c-0.3,0.5-0.6,1-0.8,1.5h6.6c0.2,0.5,0.4,1,0.6,1.5h-7.8c-0.2,0.5-0.3,1-0.4,1.5h8.6c0.2,0.9,0.3,1.9,0.3,3c0,1.5-0.2,3-0.7,4.4
			h-7.8c0.2,0.5,0.4,1,0.6,1.5h6.6c-0.2,0.5-0.5,1-0.8,1.5h-5c0.3,0.5,0.7,1,1.1,1.5h2.8c-0.4,0.5-0.9,1-1.4,1.5
			c2.5,2.2,5.8,3.6,9.4,3.6c7.7,0,14-6.3,14-14C53.4,11.4,47.1,5.1,39.4,5.1L39.4,5.1z"/>
		<path class="st14" d="M51.6,26.9c0-0.2,0.2-0.4,0.4-0.4c0.2,0,0.4,0.2,0.4,0.4c0,0.2-0.2,0.5-0.4,0.5
			C51.8,27.4,51.6,27.1,51.6,26.9L51.6,26.9z M52.1,27.3c0.2,0,0.4-0.2,0.4-0.4c0-0.2-0.2-0.3-0.4-0.3c-0.2,0-0.4,0.1-0.4,0.3
			C51.7,27.1,51.9,27.3,52.1,27.3L52.1,27.3z M52,27.1h-0.1v-0.4h0.2c0.1,0,0.1,0,0.1,0c0,0,0.1,0.1,0.1,0.1c0,0.1,0,0.1-0.1,0.1
			l0.1,0.2h-0.1l-0.1-0.1H52V27.1L52,27.1z M52,26.9L52,26.9c0.1,0,0.1,0,0.1,0c0,0,0,0,0-0.1l0,0c0,0-0.1,0-0.1,0H52V26.9L52,26.9z
			"/>
		<polygon class="st15" points="18.4,23 16.7,23 17.7,17.5 15.3,23 13.8,23 13.5,17.6 12.4,23 10.8,23 12.1,15.9 14.9,15.9 
			14.9,20.3 16.9,15.9 19.8,15.9 18.4,23 		"/>
		<path class="st15" d="M37.9,22.9c-0.5,0.1-0.9,0.2-1.3,0.2c-0.9,0-1.4-0.4-1.4-1.3c0-0.2,0-0.4,0.1-0.5l0.1-0.6l0.1-0.4l0.8-4.4
			H38l-0.2,1.3h0.9l-0.2,1.4h-0.9L37.1,21c0,0.1,0,0.2,0,0.2c0,0.3,0.2,0.4,0.6,0.4c0.2,0,0.4,0,0.5-0.1L37.9,22.9L37.9,22.9z"/>
		<path class="st15" d="M31,19c0,0.7,0.4,1.2,1.3,1.6c0.7,0.3,0.9,0.4,0.9,0.7c0,0.4-0.3,0.5-1,0.5c-0.5,0-1-0.1-1.6-0.2l-0.2,1.3
			h0.1l0.3,0.1c0.1,0,0.2,0.1,0.5,0.1c0.4,0,0.7,0.1,1,0.1c1.9,0,2.7-0.6,2.7-1.9c0-0.8-0.4-1.3-1.2-1.6c-0.7-0.3-0.8-0.4-0.8-0.6
			c0-0.3,0.3-0.5,0.9-0.5c0.4,0,0.8,0,1.3,0.1l0.2-1.3c-0.5-0.1-1.2-0.1-1.6-0.1C31.6,17.1,31,18,31,19L31,19z"/>
		<path class="st15" d="M24.1,23h-1.5l0-0.6c-0.4,0.5-1,0.7-1.8,0.7c-0.9,0-1.6-0.6-1.6-1.6c0-1.4,1.1-2.2,3.1-2.2
			c0.2,0,0.4,0,0.7,0c0.1-0.2,0.1-0.3,0.1-0.4c0-0.4-0.3-0.5-1.1-0.5c-0.5,0-1,0.1-1.4,0.2l-0.2,0.1l-0.2,0l0.2-1.3
			c0.9-0.2,1.5-0.3,2.1-0.3c1.5,0,2.3,0.6,2.3,1.7c0,0.3,0,0.5-0.2,1.2l-0.4,2l-0.1,0.4l-0.1,0.3l0,0.2V23L24.1,23z M22.9,20.4
			c-0.2,0-0.3,0-0.4,0c-1,0-1.5,0.3-1.5,0.9c0,0.4,0.2,0.6,0.6,0.6C22.3,21.8,22.9,21.3,22.9,20.4L22.9,20.4z"/>
		<path class="st15" d="M29.8,22.9c-0.6,0.2-1.2,0.2-1.8,0.2c-1.9,0-3-0.9-3-2.6c0-2,1.3-3.4,3-3.4c1.5,0,2.4,0.8,2.4,2.1
			c0,0.4-0.1,0.9-0.2,1.4h-3.5c0,0.1,0,0.1,0,0.2c0,0.7,0.5,1,1.5,1c0.6,0,1.2-0.1,1.8-0.4L29.8,22.9L29.8,22.9z M29,19.4
			c0-0.1,0-0.2,0-0.3c0-0.5-0.3-0.7-0.8-0.7c-0.5,0-1,0.4-1.1,1H29L29,19.4z"/>
		<path class="st15" d="M48.4,20.4c-0.2,1.9-1.6,2.8-3.4,2.8c-2,0-2.8-1.2-2.8-2.7c0-2,1.3-3.4,3.4-3.4c1.8,0,2.8,1.2,2.8,2.6
			C48.4,20,48.4,20,48.4,20.4L48.4,20.4z M46.6,19.7c0-0.6-0.2-1.2-1-1.2c-0.9,0-1.5,1.1-1.5,2c0,0.8,0.4,1.3,1,1.3
			c0.4,0,1.2-0.5,1.3-1.4C46.6,20.2,46.6,19.9,46.6,19.7L46.6,19.7z"/>
		<path class="st6" d="M48.6,22.1c0-0.2,0.2-0.4,0.5-0.4c0.2,0,0.4,0.2,0.4,0.4c0,0.2-0.2,0.5-0.4,0.5
			C48.8,22.6,48.6,22.4,48.6,22.1L48.6,22.1z M49,22.5c0.2,0,0.3-0.2,0.3-0.4c0-0.2-0.1-0.3-0.3-0.3c-0.2,0-0.4,0.1-0.4,0.3
			C48.7,22.3,48.8,22.5,49,22.5L49,22.5z M49,22.3h-0.1v-0.4H49c0.1,0,0.1,0,0.1,0c0,0,0.1,0.1,0.1,0.1c0,0.1,0,0.1-0.1,0.1l0.1,0.2
			h-0.1L49,22.2H49V22.3L49,22.3z M49,22.1L49,22.1c0.1,0,0.1,0,0.1,0c0,0,0,0,0-0.1v0C49.1,22,49,22,49,22.1L49,22.1L49,22.1
			L49,22.1z"/>
		<polygon class="st6" points="18.9,22.6 17.1,22.6 18.1,17.1 15.8,22.6 14.2,22.6 13.9,17.2 12.9,22.6 11.3,22.6 12.6,15.5 
			15.4,15.5 15.5,19.9 17.4,15.5 20.2,15.5 18.9,22.6 		"/>
		<path class="st6" d="M38.3,22.5c-0.5,0.1-0.9,0.2-1.3,0.2c-0.9,0-1.4-0.4-1.4-1.3c0-0.2,0-0.3,0.1-0.5l0.1-0.6l0.1-0.4l0.8-4.4
			h1.7l-0.2,1.3h0.9l-0.2,1.4H38l-0.4,2.4c0,0.1-0.1,0.2-0.1,0.2c0,0.3,0.2,0.4,0.6,0.4c0.2,0,0.4,0,0.5-0.1L38.3,22.5L38.3,22.5z"
			/>
		<path class="st15" d="M42.8,18.5l0-0.2l0.3-0.9c-0.1,0-0.1,0-0.1,0c-0.1,0-0.1,0-0.1,0c-0.1,0-0.1,0-0.2,0c-0.6,0-1,0.2-1.5,0.9
			l0.2-1h-1.8L38.4,23h1.7c0.2-1.3,0.4-2.1,0.5-2.7c0.2-1,1-1.5,1.6-1.4c0.1,0,0.1,0,0.2,0l0.1,0.1L42.8,18.5L42.8,18.5z"/>
		<path class="st6" d="M43.4,16.9c-0.1-0.1-0.2-0.1-0.2-0.1c-0.1,0-0.1,0-0.1-0.1c-0.1,0-0.1,0-0.2,0c-0.6,0-1,0.2-1.5,0.9l0.2-0.9
			H40l-1.1,5.8h1.8c0.6-3.5,0.9-4.2,1.7-4.2c0.1,0,0.1,0,0.2,0l0.2,0.1L43.4,16.9L43.4,16.9z"/>
		<path class="st6" d="M31.4,18.6c0,0.7,0.4,1.2,1.3,1.6c0.7,0.3,0.8,0.4,0.8,0.7c0,0.4-0.3,0.5-1,0.5c-0.5,0-1-0.1-1.6-0.2
			l-0.2,1.3h0.1l0.3,0.1c0.1,0,0.3,0,0.5,0c0.4,0.1,0.7,0.1,1,0.1c1.8,0,2.7-0.6,2.7-1.9c0-0.8-0.4-1.3-1.3-1.6
			c-0.7-0.3-0.8-0.4-0.8-0.6c0-0.3,0.3-0.5,0.9-0.5c0.3,0,0.8,0,1.3,0.1l0.2-1.3c-0.5-0.1-1.2-0.1-1.5-0.1
			C32.1,16.7,31.4,17.6,31.4,18.6L31.4,18.6z"/>
		<path class="st6" d="M24.5,22.6h-1.4l0-0.6c-0.4,0.5-1,0.7-1.8,0.7c-0.9,0-1.6-0.6-1.6-1.6c0-1.4,1.1-2.2,3.1-2.2
			c0.2,0,0.4,0,0.7,0c0.1-0.2,0.1-0.3,0.1-0.4c0-0.4-0.3-0.5-1.1-0.5c-0.5,0-1,0.1-1.4,0.1l-0.2,0.1l-0.2,0l0.2-1.3
			c0.9-0.2,1.4-0.3,2.1-0.3c1.5,0,2.3,0.6,2.3,1.7c0,0.3,0,0.5-0.1,1.2l-0.4,2.1l-0.1,0.4l-0.1,0.3l0,0.2L24.5,22.6L24.5,22.6z
			 M23.3,20c-0.2,0-0.3,0-0.4,0c-1,0-1.5,0.3-1.5,0.9c0,0.4,0.2,0.6,0.6,0.6C22.7,21.5,23.2,20.9,23.3,20L23.3,20z"/>
		<path class="st6" d="M30.2,22.5c-0.6,0.2-1.2,0.2-1.8,0.2c-1.9,0-3-0.9-3-2.6c0-2,1.3-3.4,3-3.4c1.4,0,2.3,0.8,2.3,2.1
			c0,0.4-0.1,0.9-0.2,1.4h-3.5c0,0.1,0,0.1,0,0.2c0,0.7,0.5,1,1.5,1c0.6,0,1.2-0.1,1.8-0.4L30.2,22.5L30.2,22.5z M29.3,19
			c0-0.1,0-0.2,0-0.3c0-0.5-0.3-0.7-0.8-0.7c-0.5,0-0.9,0.4-1.1,1H29.3L29.3,19z"/>
		<path class="st6" d="M48.8,20c-0.3,1.9-1.6,2.8-3.4,2.8c-1.9,0-2.7-1.2-2.7-2.7c0-2,1.3-3.4,3.4-3.4c1.8,0,2.8,1.2,2.8,2.6
			C48.9,19.6,48.9,19.6,48.8,20L48.8,20z M47,19.2c0-0.6-0.2-1.2-1-1.2c-0.9,0-1.4,1-1.4,2c0,0.8,0.4,1.3,1,1.3
			c0.4,0,1.2-0.5,1.3-1.4C47,19.7,47,19.5,47,19.2L47,19.2z"/>
	</g>
</g>
<g id="american_express">
	
		<radialGradient id="SVGID_2_" cx="-138.5173" cy="301.67" r="55.3073" gradientTransform="matrix(1 0 0 -1 149.0522 308.3086)" gradientUnits="userSpaceOnUse">
		<stop  offset="0" style="stop-color:#9DD5F6"/>
		<stop  offset="7.110000e-002" style="stop-color:#98D3F5"/>
		<stop  offset="0.1575" style="stop-color:#89CEF3"/>
		<stop  offset="0.2516" style="stop-color:#70C6EF"/>
		<stop  offset="0.3514" style="stop-color:#4EBBEA"/>
		<stop  offset="0.4546" style="stop-color:#23ADE3"/>
		<stop  offset="0.5" style="stop-color:#0DA6E0"/>
		<stop  offset="1" style="stop-color:#2E77BC"/>
	</radialGradient>
	<path class="st17" d="M59.7,0H0v38h59.7V26.2c0.2-0.3,0.4-0.8,0.4-1.3c0-0.6-0.1-1-0.4-1.3"/>
	<g>
		<path class="st18" d="M5.4,13.4l-1.1-2.8l-1.1,2.8 M30.7,12.3c-0.2,0.1-0.5,0.1-0.8,0.1h-2v-1.6h2.1c0.3,0,0.6,0,0.8,0.1
			c0.2,0.1,0.4,0.3,0.4,0.6C31.1,12,30.9,12.2,30.7,12.3z M45.3,13.4l-1.2-2.8l-1.2,2.8H45.3z M18.1,16.5h-1.7l0-5.5L14,16.5h-1.5
			L10.1,11v5.5H6.6L6,14.9H2.5l-0.7,1.6H0l3-7h2.5l2.9,6.7V9.4h2.7l2.2,4.8l2-4.8h2.8L18.1,16.5L18.1,16.5z M25,16.5h-5.6v-7H25v1.5
			h-3.9v1.3h3.8v1.4h-3.8V15H25V16.5z M32.9,11.3c0,1.1-0.7,1.7-1.2,1.9c0.4,0.1,0.7,0.4,0.8,0.6c0.2,0.3,0.3,0.7,0.3,1.3v1.4h-1.7
			l0-0.9c0-0.4,0-1-0.3-1.4c-0.2-0.2-0.6-0.3-1.2-0.3h-1.8v2.6h-1.7v-7H30c0.9,0,1.5,0,2,0.3C32.6,10.1,32.9,10.6,32.9,11.3z
			 M35.6,16.5h-1.7v-7h1.7V16.5z M55.5,16.5h-2.4l-3.2-5.3v5.3h-3.4l-0.7-1.6h-3.5l-0.6,1.6h-2c-0.8,0-1.8-0.2-2.4-0.8
			c-0.6-0.6-0.9-1.4-0.9-2.7c0-1,0.2-2,0.9-2.7c0.5-0.6,1.4-0.8,2.6-0.8h1.6v1.5h-1.6c-0.6,0-1,0.1-1.3,0.4
			c-0.3,0.3-0.5,0.9-0.5,1.6c0,0.8,0.1,1.3,0.5,1.7c0.3,0.3,0.7,0.4,1.2,0.4h0.8l2.4-5.5h2.5l2.8,6.6V9.4h2.6l3,4.9V9.4h1.7V16.5
			L55.5,16.5z M0,17.8h2.9l0.6-1.6H5l0.6,1.6h5.6v-1.2l0.5,1.2h2.9l0.5-1.2v1.2h14l0-2.6h0.3c0.2,0,0.2,0,0.2,0.3v2.2H37v-0.6
			c0.6,0.3,1.5,0.6,2.7,0.6h3.1l0.7-1.6h1.4l0.6,1.6h5.9v-1.5l0.9,1.5H57V8h-4.7v1.2L51.7,8h-4.8v1.2L46.3,8h-6.5
			c-1.1,0-2,0.2-2.8,0.6V8h-4.5v0.6C32,8.2,31.4,8,30.6,8H14.3l-1.1,2.5L12.1,8H7v1.2L6.4,8H2l-2,4.7L0,17.8L0,17.8z"/>
		<path class="st18" d="M59.8,23h-3.1c-0.3,0-0.5,0-0.7,0.1c-0.2,0.1-0.2,0.3-0.2,0.5c0,0.3,0.1,0.4,0.4,0.5
			c0.2,0.1,0.4,0.1,0.6,0.1l0.9,0c0.9,0,1.5,0.2,1.9,0.6c0.1,0.1,0.1,0.1,0.2,0.2 M59.8,27.7c-0.4,0.6-1.2,0.9-2.3,0.9h-3.2v-1.5
			h3.2c0.3,0,0.5,0,0.7-0.2c0.1-0.1,0.2-0.3,0.2-0.5c0-0.2-0.1-0.4-0.2-0.5c-0.1-0.1-0.3-0.2-0.6-0.2c-1.6-0.1-3.5,0-3.5-2.2
			c0-1,0.6-2.1,2.4-2.1h3.3v-1.4h-3.1c-0.9,0-1.6,0.2-2.1,0.6v-0.6h-4.6c-0.7,0-1.6,0.2-2,0.6v-0.6h-8.2v0.6
			c-0.7-0.5-1.8-0.6-2.3-0.6H32v0.6c-0.5-0.5-1.7-0.6-2.4-0.6h-6.1l-1.4,1.5l-1.3-1.5h-9.1v9.8h8.9l1.4-1.5l1.3,1.5l5.5,0v-2.3h0.5
			c0.7,0,1.6,0,2.3-0.3v2.6h4.5v-2.6h0.2c0.3,0,0.3,0,0.3,0.3v2.3h13.7c0.9,0,1.8-0.2,2.3-0.6v0.6h4.4c0.9,0,1.8-0.1,2.5-0.5V27.7
			L59.8,27.7z M53.1,24.9c0.3,0.3,0.5,0.8,0.5,1.5c0,1.5-0.9,2.2-2.6,2.2h-3.3v-1.5h3.3c0.3,0,0.5,0,0.7-0.2
			c0.1-0.1,0.2-0.3,0.2-0.5c0-0.2-0.1-0.4-0.2-0.5c-0.1-0.1-0.3-0.2-0.6-0.2c-1.6-0.1-3.5,0-3.5-2.2c0-1,0.6-2.1,2.4-2.1h3.4V23
			h-3.1c-0.3,0-0.5,0-0.7,0.1c-0.2,0.1-0.3,0.3-0.3,0.5c0,0.3,0.2,0.4,0.4,0.5c0.2,0.1,0.4,0.1,0.7,0.1l0.9,0
			C52,24.3,52.7,24.5,53.1,24.9z M37.9,24.4c-0.2,0.1-0.5,0.1-0.8,0.1h-2V23h2.1c0.3,0,0.6,0,0.8,0.1c0.2,0.1,0.3,0.3,0.3,0.6
			C38.2,24.1,38.1,24.3,37.9,24.4z M38.9,25.3c0.4,0.1,0.7,0.4,0.8,0.6c0.2,0.3,0.3,0.7,0.3,1.3v1.4h-1.7v-0.9c0-0.4,0-1-0.3-1.4
			c-0.2-0.3-0.6-0.3-1.2-0.3H35v2.6h-1.7v-7h3.9c0.9,0,1.5,0,2,0.3c0.5,0.3,0.9,0.8,0.9,1.6C40.1,24.6,39.4,25.1,38.9,25.3z
			 M41,21.5h5.6V23h-3.9v1.3h3.8v1.4h-3.8v1.4l3.9,0v1.5H41V21.5z M29.7,24.8h-2.2V23h2.2c0.6,0,1,0.2,1,0.9
			C30.8,24.5,30.3,24.8,29.7,24.8z M25.9,27.9l-2.6-2.9l2.6-2.8V27.9z M19.2,27.1h-4.1v-1.4h3.7v-1.4h-3.7V23h4.2l1.8,2L19.2,27.1z
			 M32.6,23.9c0,2-1.5,2.4-2.9,2.4h-2.1v2.4h-3.3l-2.1-2.3l-2.1,2.3h-6.7v-7h6.8l2.1,2.3l2.1-2.3h5.4C31.1,21.5,32.6,21.9,32.6,23.9
			z"/>
	</g>
</g>
</svg>
