<?xml version="1.0" encoding="utf-8"?>
<!-- Generator: Adobe Illustrator 15.0.2, SVG Export Plug-In . SVG Version: 6.00 Build 0)  -->
<!DOCTYPE svg PUBLIC "-//W3C//DTD SVG 1.1//EN" "http://www.w3.org/Graphics/SVG/1.1/DTD/svg11.dtd">
<svg version="1.1" id="Layer_1" xmlns="http://www.w3.org/2000/svg" xmlns:xlink="http://www.w3.org/1999/xlink" x="0px" y="0px"
	 width="1200px" height="760px" viewBox="0 0 1200 760" enable-background="new 0 0 1200 760" xml:space="preserve">
<g id="american_express">
	
		<radialGradient id="SVGID_1_" cx="-151.8706" cy="669.5557" r="54.9865" gradientTransform="matrix(19.978 0 0 20 3243.1516 -13258.3281)" gradientUnits="userSpaceOnUse">
		<stop  offset="0" style="stop-color:#9DD5F6"/>
		<stop  offset="0.0711" style="stop-color:#98D3F5"/>
		<stop  offset="0.1575" style="stop-color:#89CEF3"/>
		<stop  offset="0.2516" style="stop-color:#70C6EF"/>
		<stop  offset="0.3514" style="stop-color:#4EBBEA"/>
		<stop  offset="0.4546" style="stop-color:#23ADE3"/>
		<stop  offset="0.5" style="stop-color:#0DA6E0"/>
		<stop  offset="1" style="stop-color:#2E77BC"/>
	</radialGradient>
	<rect fill="url(#SVGID_1_)" width="1192" height="760"/>
	<path fill="#FFFFFF" d="M108,268l-22-56l-22,56 M614,246c-4,2-10,2-16,2h-40v-32h42c6,0,12,0,16,2s8,6,8,12
		C622,240,618,244,614,246z M906,268l-24-56l-24,56H906z M362,330h-34V220l-48,110h-30l-48-110v110h-70l-12-32H50l-14,32H0l60-140
		h50l58,134V188h54l44,96l40-96h56V330L362,330z M500,330H388V190h112v30h-78v26h76v28h-76v26h78V330z M658,226c0,22-14,34-24,38
		c8,2,14,8,16,12c4,6,6,14,6,26v28h-34v-18c0-8,0-20-6-28c-4-4-12-6-24-6h-36v52h-34V190h78c18,0,30,0,40,6C652,202,658,212,658,226
		z M712,330h-34V190h34V330z M1110,330h-48l-64-106v106h-68l-14-32h-70l-12,32h-40c-16,0-36-4-48-16s-18-28-18-54c0-20,4-40,18-54
		c10-12,28-16,52-16h32v30h-32c-12,0-20,2-26,8s-10,18-10,32c0,16,2,26,10,34c6,6,14,8,24,8h16l48-110h50l56,132V188h52l60,98v-98
		h34v142H1110z M0,356h58l12-32h30l12,32h112v-24l10,24h58l10-24v24h280v-52h6c4,0,4,0,4,6v44h148v-12c12,6,30,12,54,12h62l14-32h28
		l12,32h118v-30l18,30h94V160h-94v24l-12-24h-96v24l-12-24H796c-22,0-40,4-56,12v-12h-90v12c-10-8-22-12-38-12H286l-22,50l-22-50
		H140v24l-12-24H40L0,254V356L0,356z"/>
	<path fill="#FFFFFF" d="M1192,460h-62c-6,0-10,0-14,2s-4,6-4,10c0,6,2,8,8,10c4,2,8,2,12,2h18c18,0,30,4,38,12c2,2,2,2,4,4
		 M1192,554c-8,12-24,18-46,18h-64v-30h64c6,0,10,0,14-4c2-2,4-6,4-10s-2-8-4-10s-6-4-12-4c-32-2-70,0-70-44c0-20,12-42,48-42h66
		v-28h-62c-18,0-32,4-42,12v-12h-92c-14,0-32,4-40,12v-12H792v12c-14-10-36-12-46-12H638v12c-10-10-34-12-48-12H468l-28,30l-26-30
		H232v196h178l28-30l26,30h110v-46h10c14,0,32,0,46-6v52h90v-52h4c6,0,6,0,6,6v46h274c18,0,36-4,46-12v12h88c18,0,36-2,50-10v-32
		H1192z M1058,498c6,6,10,16,10,30c0,30-18,44-52,44h-66v-30h66c6,0,10,0,14-4c2-2,4-6,4-10s-2-8-4-10s-6-4-12-4c-32-2-70,0-70-44
		c0-20,12-42,48-42h68v32h-64c-6,0-10,0-14,2s-6,6-6,10c0,6,4,8,8,10s8,2,14,2h18C1038,486,1052,490,1058,498z M756,488
		c-4,2-10,2-16,2h-40v-30h40c6,0,12,0,16,2s6,6,6,12C762,482,760,486,756,488z M776,506c8,2,14,8,16,12c4,6,6,14,6,26v28h-34v-18
		c0-8,0-20-6-28c-4-6-12-6-24-6h-36v52h-34V432h78c18,0,30,0,40,6s18,16,18,32C800,492,784,502,776,506z M818,430h112v30h-78v26h76
		v28h-76v28h78v30H818V430z M592,496h-44v-36h44c12,0,20,4,20,18C612,490,604,496,592,496z M514,558l-52-58l52-56V558z M382,542h-82
		v-28h74v-28h-74v-26h84l36,40L382,542z M648,478c0,40-30,48-58,48h-42v48h-66l-42-46l-42,46H264V434h136l42,46l42-46h108
		C618,430,648,438,648,478z"/>
	<path fill="#2B7BBF" d="M1192,554c4-6,8-16,8-26c0-12-2-20-8-26"/>
</g>
</svg>
