<?xml version="1.0" encoding="utf-8"?>
<!-- Generator: Adobe Illustrator 15.0.2, SVG Export Plug-In . SVG Version: 6.00 Build 0)  -->
<!DOCTYPE svg PUBLIC "-//W3C//DTD SVG 1.1//EN" "http://www.w3.org/Graphics/SVG/1.1/DTD/svg11.dtd">
<svg version="1.1" id="Layer_1" xmlns="http://www.w3.org/2000/svg" xmlns:xlink="http://www.w3.org/1999/xlink" x="0px" y="0px"
	 width="1200px" height="760px" viewBox="0 0 1200 760" enable-background="new 0 0 1200 760" xml:space="preserve">
<g id="Diners_club">
	<g>
		<rect x="20" y="20" fill="#FFFFFF" width="1180" height="740"/>
		<path fill="#DCDCDC" d="M1180,20v720H20V20H1180 M1200,0H0v760h1200V0L1200,0z"/>
	</g>
	<g id="Layer_1_copy">
		<path d="M632,648c0-2-2-4-2-8l-14-40v-2l0,0l0,0c-2,0-4,2-6,4c0,4-2,6-2,10l-12,34c-2,4-4,4-6,4l0,0l0,0v2l0,0l0,0c2,0,6,0,8,0
			c4,0,6,0,10,0l0,0v-2l0,0h-8c-2,0-6,0-6-2s0-4,2-6l2-8h16l2,8c0,2,2,4,2,6s-2,2-4,2l0,0l0,0v2l0,0l0,0c4,0,8,0,12,0s6,0,10,0l0,0
			v-2l0,0l0,0C634,650,632,650,632,648z M638,652c-4,0-6,0-10,0s-8,0-12,0v-2l0,0c2,0,4,0,4-2c0,0,0-2-2-6l-2-8h-16l-2,8
			c0,2-2,4-2,6s4,2,6,2l0,0v2c-4,0-6,0-10,0c-2,0-6,0-8,0v-2l0,0c2,0,6-2,6-4l12-34c0-2,2-6,2-10c2,0,6-2,6-4l0,0l0,0v2l14,40
			c0,2,2,6,2,8s2,2,4,2l0,0C638,650,638,652,638,652z M686,600c2,0,8,0,10,0c4,0,8,0,12,0v2l0,0c-2,0-6,0-6,4v40c0,4,4,4,6,4l0,0v2
			c-4,0-8,0-12,0s-8,0-10,0v-2l0,0c2,0,6,0,6-4v-40C694,602,690,602,686,600L686,600C686,602,686,600,686,600z M608,608L608,608
			l-8,22h14L608,608L608,608z M602,630l6-20l6,20H602z M682,598L682,598c0,2,0,4,0,6s0,4,0,6h-2c0-2,0-8-6-8h-12v40c0,6,2,6,6,6h2v2
			c-2,0-8,0-12,0s-10,0-12,0v-2h2c4,0,6,0,6-6v-40h-14c-6,0-6,2-8,6h-2c0-2,0-4,0-6s0-4,0-6h2c0,2,2,2,4,2l0,0h38
			C680,600,682,600,682,598z M722,572c-32,0-52-20-52-52c0-28,26-48,52-48c12,0,22,4,32,8l2,20h-4c-2-16-14-22-30-22s-38,10-38,44
			c0,28,20,48,42,48c14,0,24-10,28-24h4l-4,20C748,568,732,572,722,572z M586,602v-2l0,0l0,0c-4,0-6,0-10,0s-6,0-10,0l0,0v2l0,0h2
			c2,0,6,0,6,6v28l-34-36c-2,0-4,0-6,0s-6,0-8,0l0,0v2l0,0h2c4,0,6,2,6,6v32c0,6-2,10-6,10h-2l0,0v2l0,0l0,0c4,0,6,0,10,0s6,0,10,0
			l0,0v-2l0,0h-2c-6,0-6-2-6-8v-30l38,42h4l0,0l0,0c0-2,0-4,0-8v-34C578,604,580,604,586,602L586,602L586,602L586,602z M578,612v34
			c0,2,0,6,0,8h-2l-38-44v30c0,6,2,8,8,8h2v2c-4,0-6,0-10,0s-6,0-10,0v-2h2c6,0,6-4,6-10v-32c0-4-4-6-6-6l0,0l0,0c2,0,6,0,8,0
			s4,0,6,0l34,38l0,0l0,0l0,0v-28c0-6-4-8-6-8h-2v-2c4,0,6,0,10,0s6,0,10,0v2h-2C580,602,578,604,578,612z M682,598L682,598
			c0,2-2,2-4,2h-38l0,0c-2,0-4,0-4-2l0,0h-2l0,0l0,0c0,2,0,4,0,6s0,4,0,6l0,0h2l0,0l0,0c2-6,2-6,6-6h12v40c0,6-2,6-6,6h-2l0,0v2l0,0
			l0,0c2,0,8,0,12,0s10,0,12,0l0,0v-2l0,0h-2c-4,0-6,0-6-6v-40h12c4,0,6,4,6,6l0,0h2l0,0l0,0c0-2,0-4,0-6S682,600,682,598L682,598
			L682,598L682,598z M682,604c0,2,0,4,0,6h-2c0-2,0-8-6-8h-12v40c0,6,2,6,6,6h2v2c-2,0-8,0-12,0s-10,0-12,0v-2h2c4,0,6,0,6-6v-40
			h-14c-6,0-6,2-8,6h-2c0-2,0-4,0-6s0-4,0-6h2c0,2,2,2,4,2h38c2,0,4,0,4-2h2C684,600,682,602,682,604z M632,648c0-2-2-6-2-8l-14-40
			v-2l0,0l0,0l0,0c-2,0-4,2-6,4c0,2-2,6-2,10l-12,34c-2,4-4,6-6,6l0,0v2c2,0,6,0,8,0s6,0,8,0v-2l0,0c-2,0-6,0-6-2s0-4,2-6l2-8h18
			l4,8c0,2,2,4,2,6s-4,2-4,2l0,0v2c4,0,8,0,10,0c4,0,6,0,10,0v-2l0,0C634,650,632,650,632,648z M600,630l8-22l0,0l0,0l0,0l8,22H600z
			 M492,604c-2,0-4,0-4,0v22h4c8,0,12-2,12-12C502,608,498,604,492,604z M490,626h-4v-22c0,0,2,0,4,0c6,0,10,4,10,10
			C502,622,498,626,490,626z M484,570c-4,0-10,0-14,0s-10,0-14,0v-4h2c4,0,6,0,6-4v-36c0-8-4-12-12-12c-4,0-12,4-16,6v40
			c0,4,4,4,6,4h2v4c-4,0-10,0-14,0s-10,0-14,0v-4h2c4,0,6,0,6-4v-36l0,0c0-6-2-6-8-10v-2c6-2,12-4,18-6c0,0,0,0,0,2v8
			c8-6,14-10,24-10c12,0,16,8,16,20v36c0,4,4,4,6,4h2v4H484z M514,646l-14-20l0,0c6-2,10-6,10-12c0-10-8-12-18-12c-4,0-8,0-12,0
			s-8,0-12,0v2h2c2,0,6,0,6,6v38c0,4-2,4-6,4h-2v2c4,0,8,0,10,0c4,0,8,0,12,0v-2h-2c-4,0-6,0-6-6v-16l0,0h6l0,0c4,8,10,16,16,24
			c2,0,4,0,8,0c2,0,4,0,8,0v-2C518,650,516,650,514,646z M490,626h-4l0,0v-24l0,0c2,0,2,0,4,0c6,0,12,4,12,12
			C502,624,498,626,490,626z M516,646l-12-18c6-2,10-6,10-14c0-10-8-14-18-14c-4,0-8,0-12,0s-10,0-12,0l0,0v2l0,0h2c2,0,4,0,6,6v38
			c0,2-2,4-6,4h-2l0,0v2l0,0l0,0c4,0,8,0,10,0c4,0,8,0,12,0l0,0v-2l0,0h-2c-4,0-6,0-6-6v-16h4c4,8,10,16,16,24c2,0,6,0,8,0s4,0,8,0
			l0,0v-2l0,0l0,0C518,650,518,650,516,646z M522,652c-2,0-4,0-8,0c-2,0-4,0-8,0c-6-8-10-16-16-24h-4v16c0,6,2,6,6,6h2v2
			c-4,0-8,0-12,0s-8,0-10,0v-2h2c2,0,6-2,6-4v-38c0-6-4-6-6-6h-2v-2c2,0,8,0,12,0s8,0,12,0c10,0,18,2,18,14c0,6-4,10-10,14l12,20
			c2,4,4,4,8,4C522,650,522,652,522,652z M464,640L464,640c-2,8-6,10-16,10c-4,0-8,0-8-4v-18h8c4,0,6,2,6,8l0,0h2l0,0l0,0
			c0-2,0-6,0-8s0-6,0-8l0,0h-2l0,0l0,0c0,4-2,6-6,6h-8v-20h10c8,0,8,4,8,8l0,0h2l0,0l0,0c0-2,0-4,0-8c0-2,0-2,0-4l0,0l0,0
			c-6,0-12,0-20,0c-6,0-14,0-18,0l0,0v2l0,0h2c2,0,6,0,6,4v40c0,4-2,4-6,4h-2l0,0l0,0v2l0,0l0,0c4,0,14,0,20,0s16,0,20,0l0,0l0,0
			c0-4,2-8,2-12l0,0V640L464,640L464,640z M464,652c-4,0-14,0-20,0s-16,0-20,0v-2h2c2,0,6,0,6-4v-40c0-4-2-4-6-4h-2v-2
			c4,0,12,0,18,0s14,0,20,0c0,4,0,8,0,12h-2c0-4-2-8-10-8h-10v20h8c4,0,6-2,6-6h2c0,2,0,6,0,8s0,6,0,8h-2c0-4,0-8-6-8h-8v18
			c0,4,4,4,10,4c10,0,12,0,16-10h2C466,644,466,648,464,652z M576,600c2,0,6,0,8,0v2l0,0c-4,0-8,0-8,10v34c0,2,0,4,0,8h-2l-40-44v32
			c0,6,2,10,8,10l0,0v2c-4,0-6,0-10,0s-6,0-10,0v-2l0,0c6,0,8-4,8-10v-32c0-4-4-8-8-8l0,0v-2c2,0,6,0,8,0s4,0,6,0l34,38l0,0l0,0v-28
			c0-6-4-8-6-8h-2v-2C568,600,572,600,576,600z M572,638L572,638L572,638L572,638z M698,600c-4,0-8,0-12,0l0,0v2l0,0h2c2,0,6,0,6,4
			v40c0,4-2,4-6,4h-2l0,0l0,0v2l0,0l0,0c2,0,8,0,12,0s8,0,12,0l0,0v-2l0,0h-2c-2,0-6,0-6-4v-40c0-4,2-4,6-4h2l0,0v-2l0,0l0,0
			C706,600,702,600,698,600z M710,602L710,602c-4,0-6,0-6,4v40c0,4,2,4,6,4h2v2c-4,0-8,0-12,0s-8,0-12,0v-2h2c2,0,6,0,6-4v-40
			c0-4-2-4-6-4h-2v-2c2,0,8,0,12,0s8,0,12,0L710,602L710,602z M924,646c2-2,2-4,2-6h2c0,4-2,8-2,12c-6,0-14,0-20,0s-14,0-20,0v-2
			l0,0c2,0,6,0,6-6v-38c0-4-4-4-6-4l0,0v-2c4,0,8,0,12,0s8,0,12,0v2h-2c-2,0-6,0-6,4v38c0,4,2,4,4,4s2,0,4,0s4,0,6,0
			C920,650,922,648,924,646z M876,648c0-2-2-6-2-8l-14-40v-2l0,0l0,0l0,0c-2,0-4,2-6,4c0,2-2,6-2,10l-12,34c-2,4-4,6-6,6l0,0v2
			c2,0,6,0,8,0s6,0,8,0v-2l0,0c-2,0-6,0-6-2s0-4,2-6l2-8h18l4,8c0,2,2,4,2,6s-4,2-4,2l0,0v2l0,0c4,0,8,0,10,0c4,0,6,0,10,0v-2l0,0
			C880,650,878,650,876,648z M846,630l8-22l0,0l0,0l0,0l8,22H846z M854,608L854,608l-6,22h12L854,608L854,608z M846,630l6-20l6,20
			H846z M926,640L926,640c0,2-2,4-2,6c-2,2-4,4-8,4c-2,0-4,0-6,0s-2,0-4,0s-4-2-4-4v-38c0-4,2-4,4-4h2l0,0v-4l0,0l0,0c-4,0-8,0-12,0
			s-8,0-12,0l0,0v2l0,0h2c2,0,6,0,6,4v38c0,4-2,4-6,4h-2l0,0v2l0,0l0,0c6,0,14,0,20,0s14,0,20,0l0,0l0,0c0-4,2-8,2-12l0,0V640
			L926,640L926,640z M924,652c-6,0-14,0-20,0s-14,0-20,0v-2h2c2,0,6,0,6-6v-38c0-4-2-4-6-4h-2v-2c4,0,8,0,12,0s8,0,12,0v2h-2
			c-2,0-6,0-6,4v38c0,4,2,4,4,4c4,0,6,0,10,0s6-2,8-4s2-4,2-6h2C926,644,926,648,924,652z M926,598c-4,0-8,4-8,8s4,8,8,8s8-4,8-8
			S932,598,926,598z M926,612c-4,0-6-4-6-6c0-4,2-6,6-6s6,4,6,6C932,610,930,612,926,612z M928,606c2,0,2-2,2-2c0-2-2-2-2-2h-4l0,0
			c2,0,2,0,2,2v6c0,0,0,0-2,0l0,0h4l0,0h-2v-2L928,606c0,2,0,4,2,4h2l0,0C930,610,930,610,928,606L928,606z M926,606L926,606v-4l0,0
			c0,0,2,0,2,2S928,606,926,606z M878,648c0-2-2-4-2-8l-16-40v-2l0,0l0,0c-2,0-4,2-6,4c0,2-2,6-2,10l-12,34c-2,4-4,4-6,4l0,0l0,0v2
			l0,0l0,0c2,0,6,0,8,0s6,0,10,0l0,0v-2l0,0h-2c-2,0-6,0-6-2s0-4,2-6l2-8h16l2,8c0,2,2,4,2,6s-2,2-4,2l0,0l0,0v2l0,0l0,0
			c4,0,8,0,12,0s6,0,10,0l0,0v-2l0,0l0,0C880,650,878,650,878,648z M882,652c-4,0-6,0-10,0s-8,0-12,0v-2l0,0c2,0,4,0,4-2
			c0,0,0-2-2-6l-2-8h-18l-2,8c0,2-2,4-2,6s4,2,6,2l0,0v2c-4,0-6,0-10,0c-2,0-6,0-8,0v-2l0,0c2,0,6-2,6-4l12-34c0-2,2-6,2-10
			c2,0,6-2,6-4l0,0l0,0v2l14,40c0,2,2,6,2,8s2,2,4,2l0,0L882,652L882,652z M740,598c-16,0-28,12-28,28l0,0c0,16,12,28,28,28
			s28-12,28-30C768,608,756,598,740,598z M740,654c-16,0-28-10-28-26s12-28,28-28s28,10,28,26S756,654,740,654z M740,600
			c-16,0-28,12-28,28s12,26,28,26s28-12,28-28S754,600,740,600z M740,650c-12,0-18-14-18-26c0-10,4-22,18-22c12,0,18,14,18,24
			C758,638,756,650,740,650z M738,602c-14,0-18,12-18,22c0,14,6,26,18,26c14,0,18-12,18-24C758,616,752,602,738,602z M740,650
			c-12,0-18-12-18-26c0-10,4-22,16-22s18,14,18,24C756,638,754,650,740,650z M820,600c2,0,6,0,8,0v2l0,0c-4,0-6,0-6,10v34
			c0,2,0,4,0,8h-2l-40-44v32c0,6,2,10,8,10l0,0v2c-4,0-6,0-10,0s-6,0-10,0v-2l0,0c6,0,8-4,8-10v-32c0-4-4-8-8-8l0,0v-2c2,0,6,0,8,0
			s4,0,6,0l34,38l0,0l0,0v-28c0-6-4-8-6-8h-2v-2C814,600,818,600,820,600z M830,602v-2l0,0l0,0c-4,0-6,0-10,0s-6,0-10,0l0,0v2l0,0h2
			c2,0,6,0,6,6v28l-32-36c-2,0-4,0-6,0s-6,0-8,0l0,0v2l0,0h2c4,0,6,2,6,6v32c0,6-2,10-6,10h-2l0,0v2l0,0l0,0c4,0,6,0,10,0s6,0,10,0
			l0,0v-2l0,0h-2c-6,0-6-2-6-8v-30l38,42h4l0,0l0,0c0-2,0-4,0-8v-34C822,604,826,604,830,602L830,602L830,602L830,602z M822,612v34
			c0,2,0,6,0,8h-2l-38-44v30c0,6,2,8,8,8h2v2c-4,0-6,0-10,0s-6,0-10,0v-2h2c6,0,6-4,6-10v-32c0-4-4-6-6-6l0,0l0,0c2,0,6,0,8,0
			s4,0,6,0l34,38l0,0l0,0v-28c0-6-4-8-6-8h-2v-2c4,0,6,0,10,0s6,0,10,0v2h-2C826,602,822,604,822,612z M818,638L818,638L818,638
			L818,638z M420,598L420,598c0,2-2,2-4,2h-38l0,0c-2,0-4,0-4-2l0,0h-2l0,0l0,0c0,2,0,4,0,6s0,4,0,6l0,0h2l0,0l0,0c2-6,2-6,6-6h12
			v40c0,6-2,6-6,6h-2l0,0v2l0,0l0,0c2,0,8,0,12,0s10,0,12,0l0,0v-2l0,0h-2c-4,0-6,0-6-6v-40h12c4,0,6,4,6,6l0,0h2l0,0l0,0
			c0-2,0-4,0-6S420,600,420,598L420,598L420,598L420,598z M422,604c0,2,0,4,0,6h-2c0-2,0-8-6-8h-12v40c0,6,2,6,6,6h2v2
			c-2,0-8,0-12,0s-10,0-12,0v-2h2c4,0,6,0,6-6v-40h-14c-6,0-6,2-6,6h-2c0-2,0-4,0-6s0-4,0-6h2c0,2,2,2,4,2h38c2,0,4,0,4-2h2
			C422,600,422,602,422,604z M356,638L356,638L356,638L356,638z M560,530v32c0,4,2,4,6,4h8v4c-8,0-14,0-20,0s-12,0-16,0v-4h4
			c4,0,6,0,6-4v-38c0-4-6-6-8-6v-2c10-4,16-8,16-8s2,0,2,2v12l0,0c4-6,10-14,18-14c4,0,8,2,8,8c0,4-2,8-6,8s-4-4-10-4
			C568,518,560,522,560,530z M620,558c0-16-30-12-30-34c0-8,6-18,22-18c4,0,10,2,16,4v14h-4c-2-8-6-14-16-14c-6,0-10,4-10,10
			c0,16,32,12,32,32c0,10-8,18-24,18c-6,0-12-2-16-4l-2-16h2c2,10,8,16,18,16C618,568,620,562,620,558z M292,600c-4,0-8,0-12,0l0,0
			v2l0,0h2c2,0,6,0,6,4v40c0,4-2,4-6,4h-2l0,0l0,0v2l0,0l0,0c2,0,8,0,12,0s8,0,12,0l0,0v-2l0,0h-2c-2,0-6,0-6-4v-40c0-4,2-4,6-4h2
			l0,0v-2l0,0l0,0C300,600,296,600,292,600z M304,602L304,602c-4,0-6,0-6,4v40c0,4,2,4,6,4h2v2c-4,0-8,0-12,0s-8,0-12,0v-2h2
			c2,0,6,0,6-4v-40c0-4-2-4-6-4h-2v-2c2,0,8,0,12,0s8,0,12,0v2H304z M358,600c2,0,6,0,8,0v2l0,0c-4,0-8,0-8,10v34c0,2,0,4,0,8h-2
			l-40-44v32c0,6,2,10,8,10l0,0v2c-4,0-6,0-10,0s-6,0-10,0v-2l0,0c6,0,8-4,8-10v-32c0-4-4-8-8-8l0,0v-2c2,0,6,0,8,0s4,0,6,0l34,38
			l0,0l0,0v-28c0-6-4-8-6-8h-2v-2C352,600,356,600,358,600z M292,600c4,0,8,0,12,0v2l0,0c-2,0-6,0-6,4v40c0,4,4,4,6,4l0,0v2
			c-4,0-8,0-12,0s-8,0-10,0v-2l0,0c2,0,6,0,6-4v-40c0-4-4-4-6-4l0,0v-2C284,600,290,600,292,600z M534,532L534,532c2-2,2-2,2-4
			c0-14-12-22-24-22c-10,0-28,8-28,36c0,8,4,30,26,30c12,0,20-8,26-16l-2-2c-6,6-12,10-18,10c-12,0-20-10-20-24c0-4,0-6,0-8H534
			L534,532z M512,512c8,0,12,6,12,12c0,2,0,4-4,4h-24C498,518,504,512,512,512z M320,570c48,0,56-34,56-48c0-24-20-48-56-48
			c-10,0-18,0-24,0s-10,0-16,0v4c6,0,12,0,12,12l0,0v68c0,10-4,10-12,10v4c6,0,12,0,18,0C306,570,314,570,320,570z M308,478
			c2,0,6,0,10,0c26,0,44,18,44,44c0,20-10,44-40,44c-6,0-14-2-14-12V478L308,478z M390,478c0-4,4-6,6-6c4,0,6,2,6,6s-4,6-6,6
			C394,486,390,482,390,478z M600,362V188c36,14,60,48,60,88S636,350,600,362z M770,562v-76c0-8-2-10-8-10v-2c6-2,12-4,14-6
			c2,0,2-2,4-2c0,0,2,0,2,2v96c0,4,4,4,6,4h2v4c-4,0-10,0-14,0s-10,0-16,0v-4h2C768,566,770,566,770,562z M398,570c-4,0-10,0-16,0
			v-4h2c4,0,6,0,6-4v-38c0-6-2-6-8-10v-2c6-2,14-4,14-4h2c0,0,0,0,0,2v54c0,4,4,4,6,4h2v4C406,570,402,570,398,570z M866,486v60
			c0,8,0,16-2,24l2,2l4-4c4,2,8,4,20,4c20,0,34-18,34-36c0-16-10-30-26-30c-8,0-16,6-20,10v-50c0-2,0-2-2-2c0,0-2,0-4,2s-8,4-14,6v2
			C864,476,866,476,866,486z M878,522c4-4,8-6,14-6c10,0,22,12,22,28c0,12-6,26-20,26c-10,0-14-8-14-14v-34H878z M466,640L466,640
			c0,4,0,8,0,12c-4,0-14,0-20,0s-16,0-20,0v-2l0,0c2,0,6,0,6-4v-40c0-4-4-4-6-4l0,0v-2c4,0,12,0,18,0s14,0,18,0c0,2,0,2,0,4s0,6,0,8
			h-2c0-4-2-8-10-8h-10v20h10c4,0,6-2,6-6h2c0,2,0,6,0,8s0,6,0,8h-2c0-4,0-8-6-8h-10v18c0,6,4,6,10,6C458,650,464,650,466,640z
			 M810,548c0,4,0,16,12,16c4,0,10-4,16-8v-36c0-2-6-4-12-6v-2c12,0,20-2,22-2s2,0,2,2v50c0,2,2,2,4,2s4,0,6,0v2c-6,0-18,4-20,4l0,0
			v-10c-8,6-14,12-24,12c-8,0-16-4-16-16v-36c0-4,0-8-8-8v-2c4,0,16,0,18,0s2,0,2,4C810,514,810,548,810,548z M420,598L420,598
			c0,2,0,4,0,6s0,4,0,6h-2c0-2,0-8-6-8h-12v40c0,6,2,6,6,6h2v2c-2,0-8,0-12,0s-10,0-12,0v-2h2c4,0,6,0,6-6v-40h-12c-6,0-6,2-8,6h-2
			c0-2,0-4,0-6s0-4,0-6h2c0,2,2,2,4,2l0,0h38C418,600,420,600,420,598z M566,438h76c88,0,168-72,168-160c0-96-80-162-168-162h-76
			c-90,0-162,66-162,162C404,366,478,438,566,438z M568,128c82,0,148,66,148,148s-66,148-148,148s-148-66-148-148S486,128,568,128z
			 M358,600c-4,0-6,0-10,0l0,0v2l0,0h2c2,0,6,0,6,6v28l-34-36c-2,0-4,0-6,0s-6,0-8,0l0,0v2l0,0h2c4,0,6,2,6,6v32c0,6-2,10-6,10h-2
			l0,0v2l0,0l0,0c4,0,6,0,10,0s6,0,10,0l0,0v-2l0,0h-2c-6,0-6-2-6-8v-30l38,42h4l0,0l0,0c0-2,0-4,0-8v-34c0-8,4-10,6-10h2l0,0v-2
			l0,0l0,0C364,600,362,600,358,600z M368,602L368,602c-4,0-8,0-8,10v34c0,2,0,6,0,8h-2l-38-44v30c0,6,2,8,8,8h2v2c-4,0-6,0-10,0
			s-6,0-10,0v-2h2c6,0,6-4,6-10v-32c0-4-4-6-6-6l0,0l0,0c2,0,6,0,8,0s4,0,6,0l34,38l0,0v-28c0-6-4-8-6-8h-2v-2c4,0,6,0,10,0
			s6,0,10,0L368,602L368,602z M474,276c0-40,24-74,60-88v174C498,350,474,316,474,276z"/>
	</g>
</g>
</svg>
