<?xml version="1.0" encoding="utf-8"?>
<!-- Generator: Adobe Illustrator 15.0.2, SVG Export Plug-In . SVG Version: 6.00 Build 0)  -->
<!DOCTYPE svg PUBLIC "-//W3C//DTD SVG 1.1//EN" "http://www.w3.org/Graphics/SVG/1.1/DTD/svg11.dtd">
<svg version="1.1" id="Layer_1" xmlns="http://www.w3.org/2000/svg" xmlns:xlink="http://www.w3.org/1999/xlink" x="0px" y="0px"
	 width="1202px" height="764px" viewBox="0 0 1202 764" enable-background="new 0 0 1202 764" xml:space="preserve">
<g id="Delta">
	<g>
		<rect x="6" fill="#FFFFFF" width="1196" height="764"/>
		<polygon fill="#0067B3" points="1200,0 74,0 1200,696 		"/>
		<polygon fill="#F9A51A" points="6,384 616,384 616,758 		"/>
		<polygon fill="#EC1C24" points="0,574 306,574 306,764 		"/>
		<path fill="#FFFFFF" d="M494,220h62c46,0,72-26,72-72s-28-70-74-70h-62v142H494z M528,108h20c26,0,40,10,40,40c0,26-16,36-40,36
			h-20V108L528,108z"/>
		<polygon fill="#FFFFFF" points="656,220 774,220 774,184 692,184 692,160 762,160 762,128 692,128 692,108 768,108 768,78 656,78 
					"/>
		<polygon fill="#FFFFFF" points="804,220 906,220 906,184 840,184 840,78 804,78 		"/>
		<polygon fill="#FFFFFF" points="1022,78 900,78 900,108 942,108 942,220 982,220 982,108 1022,108 		"/>
		<path fill="#FFFFFF" d="M1088,118L1088,118l16,46h-30L1088,118L1088,118z M1018,220h36l10-26h50l10,26h36l-50-144h-40L1018,220
			L1018,220z"/>
	</g>
</g>
</svg>
