<?xml version="1.0" encoding="utf-8"?>
<!-- Generator: Adobe Illustrator 15.0.2, SVG Export Plug-In . SVG Version: 6.00 Build 0)  -->
<!DOCTYPE svg PUBLIC "-//W3C//DTD SVG 1.1//EN" "http://www.w3.org/Graphics/SVG/1.1/DTD/svg11.dtd">
<svg version="1.1" id="Layer_1" xmlns="http://www.w3.org/2000/svg" xmlns:xlink="http://www.w3.org/1999/xlink" x="0px" y="0px"
	 width="1200px" height="760px" viewBox="0 0 1200 760" enable-background="new 0 0 1200 760" xml:space="preserve">
<g id="LASER">
	<path d="M500,634c2,8,6,16,8,26c-6,0-10,0-16,0C494,650,496,642,500,634z M1200,760H0V0h1200V760z M336,90h224l284,12l16-30L532,84
		H336V90L336,90z M430,674c-10,0-18,0-28,0c0-20,0-38,0-58c-6,0-12,0-18,0c0,24,0,46,0,70c14,0,28,0,42,0C428,682,430,678,430,674z
		 M534,688C534,686,534,686,534,688c-8-24-16-48-22-70c0-2-2-2-2-2c-6,0-18,0-22,0c-2,0,4,2,2,4c-6,20-12,36-20,56c-2,4-2,8-4,10h16
		v-2c2-4,4-10,4-14v-2c8,0,16,0,22,0v2c2,4,2,8,4,14v2L534,688z M606,648c-4-2-8-4-12-6c-2,0-4-2-6-4s-4-4-2-8c0-2,2-4,6-4
		c2,0,4,0,6,0c4,0,8,2,12,2c0-4,2-8,2-12c-4,0-8-2-12-2c-6,0-12,0-20,2c-16,6-16,26-6,34c2,2,6,4,10,6s6,2,10,4s4,4,4,8c0,2-4,4-8,6
		c-4,0-8,0-12,0s-6-2-10-2c-2,4-2,8-4,12c8,2,16,4,22,4s12-2,18-4C618,676,622,654,606,648z M708,674c-10,0-20,0-30,0c0-6,0-12,0-18
		c8,0,16,0,24,0c0-4,0-8,0-12c-8,0-16,0-24,0c0-6,0-12,0-16c8,0,16,0,26,0c0-4,2-8,2-12c-16,0-30,0-44,0c0,24,0,46,0,70
		c16,0,30,0,46,0C708,682,708,678,708,674z M812,688l-20-36l0,0l0,0c6-2,10-6,12-12c2-8,0-18-10-20c-2,0-4-2-6-2s-4,0-6,0h-32v70h18
		v-58c4,0,8,0,12,0c2,0,4,2,4,6c2,6,0,12-10,12c-2,0-6,0-6,0l22,40H812z M864,560H592l6-12l-24,12H336v6h236l8,12l6-12h276v-6H864z
		 M864,526H610l6-10l-26,10H336v6h248l14,12l8-12h256C864,532,864,526,864,526z M864,492H628l6-12l-44,12H336v6h254l28,12l6-12h238
		L864,492L864,492z M864,458H646l6-12l-58,12H336v6h260l40,12l6-12h220C864,464,864,458,864,458z M864,424H666l6-12l-84,12H336v6
		h256l62,12l6-12h202C864,430,864,424,864,424z M864,390H686l6-12l-108,12H336v6h252l84,12l6-12h182C864,396,864,390,864,390z
		 M864,356H704l6-12l-132,12H338v6h250l106,12l6-12h164V356z M864,322H722l6-12l-156,12H336v6h246l128,12l6-12h146v-6H864z M864,288
		H740l6-12l-180,12H336v6h244l150,12l6-12h128V288L864,288z M864,254H760l6-10l-178,10H336v6h218l194,12l8-12h108V254L864,254z
		 M864,220h-84l6-12l-230,12H336v6h236l196,12l6-12h88v-6H864z M864,186h-64l6-12l-256,12H336v6h234l218,12l6-12h68L864,186L864,186
		z M864,152h-46l6-12l-280,12H336v6h230l240,12l6-12h50C864,158,864,152,864,152z M864,118h-28l6-12l-304,12H336v6h228l262,12l6-12
		h32V118L864,118z"/>
</g>
</svg>
