<?xml version="1.0" encoding="utf-8"?>
<!-- Generator: Adobe Illustrator 15.0.2, SVG Export Plug-In . SVG Version: 6.00 Build 0)  -->
<!DOCTYPE svg PUBLIC "-//W3C//DTD SVG 1.1//EN" "http://www.w3.org/Graphics/SVG/1.1/DTD/svg11.dtd">
<svg version="1.1" id="Layer_1" xmlns="http://www.w3.org/2000/svg" xmlns:xlink="http://www.w3.org/1999/xlink" x="0px" y="0px"
	 width="1200px" height="760px" viewBox="0 0 1200 760" enable-background="new 0 0 1200 760" xml:space="preserve">
<g id="Layer_9">
	<polygon fill="#003473" points="1200,760 1200,0 0,0 0,760 	"/>
	<g>
		<path fill="#FCB131" d="M600,594c52,46,118,74,194,74c160,0,288-130,288-290S954,88,794,88c-74,0-142,28-194,74
			c-58,54-94,130-94,214C506,464,542,542,600,594L600,594z"/>
		<path fill="#FCB131" d="M1044,542c0-6,4-10,10-10s10,4,10,10s-4,10-10,10C1048,550,1044,546,1044,542L1044,542z M1052,548
			c4,0,8-4,8-8s-4-8-8-8s-8,4-8,8C1046,546,1048,548,1052,548L1052,548z M1052,546L1052,546l-2-8h4h2l2,2c0,0,0,2-2,2l2,4h-2l-2-4
			h-2V546v-4h2c0,0,0,0,2,0l0,0l0,0c0,0,0,0-2,0h-2v2V546L1052,546z"/>
		<path fill="#ED1C2E" d="M694,350c-2-10-2-20-4-30H514c2-10,6-20,8-30h160c-4-10-8-20-12-30H534c4-10,10-20,16-30h102
			c-6-10-14-20-22-30h-58c8-16,18-26,28-34c-52-46-118-74-194-74c-158-2-286,128-286,288s128,290,288,290c74,0,142-28,194-74l0,0
			l0,0c10-10,20-20,30-30h-58c-8-10-16-20-22-30h102c6-10,12-20,16-30H534c-4-10-8-20-12-30h160c4-10,6-20,8-30s4-20,4-30
			c2-10,2-20,2-30C694,370,694,360,694,350L694,350z"/>
		<path fill="#FFFFFF" d="M1044,446c0-6,4-10,10-10s10,4,10,10s-4,10-10,10S1044,452,1044,446L1044,446z M1052,454c4,0,8-4,8-8
			s-4-8-8-8s-8,4-8,8C1046,450,1048,454,1052,454L1052,454z M1052,452L1052,452l-2-8h4h2l2,2c0,0,0,2-2,2l2,4h-2l-2-4h-2V452v-4h2
			c0,0,0,0,2,0l0,0l0,0c0,0,0,0-2,0h-2v2V452L1052,452z"/>
		<path fill="#003473" d="M502,464c-10,2-16,4-24,4c-14,0-24-10-24-26c0-4,0-6,0-10l2-12l2-10l14-82h30l-2,18h18l-4,30h-18l-8,48
			c0,2,0,4,0,4c0,6,4,8,10,8c4,0,6,0,10-2L502,464L502,464z"/>
		<path fill="#003473" d="M598,462c-10,4-22,4-32,4c-34,0-54-18-54-54c0-42,24-72,54-72c26,0,42,16,42,44c0,8-2,18-4,30h-62
			c0,2,0,2,0,4c0,14,10,20,28,20c12,0,22-2,32-8L598,462L598,462z M580,392c0-2,0-4,0-6c0-10-6-16-14-16c-10,0-18,8-20,22H580
			L580,392z"/>
		<polygon fill="#003473" points="264,464 232,464 250,352 210,464 190,464 186,352 168,464 138,464 162,318 206,318 208,408 
			238,318 288,318 		"/>
		<path fill="#003473" d="M338,412c-4,0-4,0-6,0c-18,0-26,6-26,18c0,8,4,12,12,12C332,442,338,430,338,412L338,412z M364,464h-28
			v-12c-6,10-16,14-32,14s-28-14-28-32c0-6,2-10,2-16c4-18,24-30,52-30c4,0,10,0,14,0c0-4,2-6,2-8c0-8-6-10-22-10c-8,0-18,2-26,4
			l-4,2h-2l4-26c14-4,24-6,36-6c26,0,42,12,42,36c0,6,0,10-2,24l-6,42l-2,8v6V464L364,464L364,464z"/>
		<path fill="#003473" d="M750,346c8,0,16,2,28,8l6-32c-2-2-4-2-8-2l-14-4c-4-2-8-2-14-2c-16,0-24,0-34,6c-6,4-12,8-18,16h-4l-32,22
			l2-12h-34l-20,120h32l12-64c0,0,4-8,6-12c6-8,10-8,18-8h2c0,6-2,14-2,22c0,40,22,64,56,64c8,0,16-2,28-4l6-34c-10,6-18,8-26,8
			c-18,0-30-14-30-36C710,370,726,346,750,346L750,346z"/>
		<path fill="#003473" d="M1014,318l-6,42c-8-12-16-16-28-16c-16,0-32,10-42,28l0,0l-20-12l2-12h-34l-20,120h32l10-64c0,0,8-8,10-12
			c4-6,10-8,14-8c-4,10-6,22-6,36c0,30,16,50,38,50c12,0,20-4,28-14l-2,12h30l24-146h-30V318z M976,436c-10,0-16-8-16-24
			c0-24,10-40,24-40c10,0,16,8,16,24C1000,420,990,436,976,436L976,436z"/>
		<path fill="#003473" d="M832,412c-4,0-4,0-6,0c-18,0-26,6-26,18c0,8,4,12,12,12C824,442,830,430,832,412L832,412z M856,464h-28
			v-12c-6,10-16,14-32,14s-28-14-28-32c0-28,22-46,56-46c4,0,10,0,14,0c0-4,2-6,2-8c0-8-6-10-22-10c-8,0-18,2-26,4l-6,2h-2l4-26
			c14-4,24-6,36-6c26,0,42,12,42,36c0,6,0,10-2,24l-6,42l-2,8v6V464L856,464L856,464z"/>
		<path fill="#003473" d="M428,370c6,0,14,0,24,2l4-28c-10-2-20-2-28-2c-34,0-46,18-46,40c0,14,6,24,24,32c12,6,14,8,14,12
			c0,8-6,12-18,12c-10,0-18-2-28-4l-4,28l0,0l6,2c2,0,4,0,8,2c8,0,14,2,18,2c34,0,50-14,50-40c0-16-8-26-24-34c-14-6-14-6-14-12
			S420,372,428,370L428,370z"/>
		<path fill="#FFFFFF" d="M790,314l-6,32c-12-6-20-8-28-8c-24,0-40,22-40,56c0,22,10,36,30,36c8,0,16-2,26-8l-6,34c-12,4-18,4-28,4
			c-34,0-54-24-54-64c0-52,28-90,70-90c6,0,10,0,14,2l12,4C788,312,788,312,790,314L790,314z"/>
		<path fill="#FFFFFF" d="M690,336c0,0-2,0-4,0c-10,0-16,6-26,20l2-18h-28l-20,120h32c12-74,14-86,30-86h2C682,356,686,346,690,336
			L690,336L690,336z"/>
		<path fill="#FFFFFF" d="M510,454c-8,2-16,4-22,4c-16,0-24-10-24-26c0-4,0-6,0-10l2-12l2-10l14-82h32l-6,18h16l-4,30h-16l-8,50
			c0,2,0,4,0,4c0,6,4,8,10,8c4,0,6,0,8-2L510,454L510,454z"/>
		<path fill="#FFFFFF" d="M390,374c0,16,8,26,24,34c12,6,14,8,14,14c0,8-6,10-18,10c-10,0-18-2-28-4l-4,28h2l6,2c2,0,4,0,8,2
			c8,0,14,2,18,2c32,0,48-12,48-40c0-16-6-26-22-34c-14-6-14-8-14-12c0-6,6-10,16-10c6,0,14,0,22,2l4-28c-8-2-20-2-28-2
			C402,334,390,352,390,374L390,374z"/>
		<path fill="#FFFFFF" d="M1030,456h-30l2-12c-8,10-18,14-28,14c-22,0-38-20-38-50c0-40,24-74,50-74c12,0,22,6,30,16l6-42h30
			L1030,456L1030,456z M984,428c14,0,24-16,24-40c0-16-6-24-16-24c-14,0-24,16-24,40C968,420,972,428,984,428L984,428z"/>
		<path fill="#FFFFFF" d="M606,454c-10,4-22,4-32,4c-34,0-54-18-54-54c0-42,24-72,54-72c26,0,42,16,42,44c0,8-2,18-4,30h-62
			c0,2,0,2,0,4c0,14,10,20,28,20c12,0,22-2,32-8L606,454L606,454z M588,382c0-2,0-4,0-6c0-10-6-16-14-16c-10,0-18,8-20,22H588
			L588,382z"/>
		<polygon fill="#FFFFFF" points="272,456 240,456 258,342 218,456 198,456 194,344 176,456 146,456 170,308 216,308 218,400 
			248,308 296,308 		"/>
		<path fill="#FFFFFF" d="M348,402c-4,0-4,0-6,0c-18,0-26,6-26,18c0,8,4,12,12,12C340,432,348,420,348,402L348,402z M372,456h-26
			v-12c-8,10-18,14-32,14c-16,0-28-14-28-32c0-30,20-46,54-46c4,0,8,0,12,0c0-4,2-6,2-8c0-8-6-10-20-10c-8,0-20,2-26,4l-4,2h-2l4-26
			c16-4,26-6,38-6c26,0,42,12,42,36c0,6,0,10-2,24l-6,42l-2,8v6v4H372L372,456z"/>
		<path fill="#FFFFFF" d="M842,402c-4,0-4,0-6,0c-18,0-26,6-26,18c0,8,4,12,12,12C832,432,840,420,842,402L842,402z M864,456h-26
			v-12c-8,10-18,14-32,14c-16,0-28-14-28-32c0-30,20-46,54-46c4,0,8,0,12,0c0-4,2-6,2-8c0-8-6-10-20-10c-8,0-18,2-26,4l-4,2h-2l4-26
			c16-4,26-6,38-6c26,0,42,12,42,36c0,6,0,10-2,24l-6,42l-2,8v6v4H864L864,456z"/>
		<path fill="#FFFFFF" d="M948,336c0,0-2,0-4,0c-10,0-16,6-26,20l2-18h-28l-20,120h32c12-74,14-86,30-86c0,0,0,0,2,0
			C940,356,944,346,948,336L948,336L948,336z"/>
	</g>
	<g>
		<path fill="#FFFFFF" d="M640,564h-14l-16,92h14c16,0,30-4,38-14c10-10,14-24,14-42C678,576,664,564,640,564 M676,650
			c-12,12-32,20-52,20h-30l20-120h30c32,0,52,18,52,50C694,620,688,638,676,650"/>
		<polygon fill="#FFFFFF" points="726,550 706,670 768,670 772,656 726,656 732,614 768,614 768,600 734,600 740,564 784,564 
			786,550 		"/>
		<path fill="#FFFFFF" d="M832,562h-12l-6,38h10c16,0,28-6,28-22C852,568,846,562,832,562 M824,612h-10l-8,44h12c20,0,32-8,32-24
			C850,620,842,612,824,612 M848,606c12,4,18,12,18,26c0,24-20,38-48,38h-28l20-120h26c24,0,36,12,36,28C868,592,860,602,848,606"/>
		<polygon fill="#FFFFFF" points="900,550 882,670 898,670 916,550 		"/>
		<polygon fill="#FFFFFF" points="936,550 934,564 970,564 954,670 970,670 986,564 1022,564 1022,550 		"/>
	</g>
</g>
</svg>
