<?xml version="1.0" encoding="utf-8"?>
<!-- Generator: Adobe Illustrator 15.0.2, SVG Export Plug-In . SVG Version: 6.00 Build 0)  -->
<!DOCTYPE svg PUBLIC "-//W3C//DTD SVG 1.1//EN" "http://www.w3.org/Graphics/SVG/1.1/DTD/svg11.dtd">
<svg version="1.1" id="Layer_1" xmlns="http://www.w3.org/2000/svg" xmlns:xlink="http://www.w3.org/1999/xlink" x="0px" y="0px"
	 width="1200px" height="760px" viewBox="0 0 1200 760" enable-background="new 0 0 1200 760" xml:space="preserve">
<g id="Visa_electron">
	<polygon fill="#005A9B" points="0,0 0,760 1200,760 1200,0 	"/>
	<g>
		<path fill="#FAA929" d="M342,442c120-52,288-98,510-52l2-56c-234-26-404,50-512,102V442L342,442z"/>
		<polygon fill="#FFFFFF" points="126,484 238,484 238,518 168,518 168,550 238,550 238,582 168,582 168,614 236,614 236,648 
			126,648 		"/>
		<polygon fill="#FFFFFF" points="266,470 308,470 308,648 266,648 		"/>
		<path fill="#FFFFFF" d="M448,634c-14,12-36,18-54,18c-44,0-62-30-62-62c0-36,26-66,64-66c46,0,60,32,60,72h-82c0,10,6,24,28,24
			c14,0,22-4,34-12L448,634L448,634z M418,574c0-12-6-24-20-24c-12,0-22,12-26,24H418L418,574z"/>
		<path fill="#FFFFFF" d="M580,640c-12,8-30,12-44,12c-38,0-64-22-64-60c0-40,26-66,68-66c14,0,32,4,40,10l-14,26c-6-2-12-4-20-4
			c-20,0-34,12-34,32c0,18,14,30,30,30c8,0,16-4,22-6L580,640L580,640z"/>
		<path fill="#FFFFFF" d="M596,528h18v-40h40v40h34v30h-34c0,16-2,34-2,44s2,16,12,16c6,0,10-2,16-6l8,28c-12,8-26,12-40,12
			c-34,0-34-22-34-48c0-14,2-30,2-46h-18L596,528L596,528z"/>
		<path fill="#FFFFFF" d="M708,528h42v16l0,0c6-10,14-20,30-20c4,0,10,0,14,2l-6,40c-4-2-8-2-14-2c-14,0-24,12-24,14v68h-42V528
			L708,528z"/>
		<path fill="#FFFFFF" d="M866,524c44,0,66,28,66,64s-22,64-66,64s-66-28-66-64S824,524,866,524L866,524z M866,620c20,0,26-18,26-32
			c0-16-6-32-26-32s-26,18-26,32C842,604,848,620,866,620L866,620z"/>
		<path fill="#FFFFFF" d="M956,528h42v12c10-10,24-18,38-18c26,0,38,14,38,46c0,24,0,50,0,76h-42c0-22,0-46,0-70c0-10-2-18-14-18
			c-6,0-16,6-22,10v76h-42L956,528L956,528z"/>
		<polygon fill="#FFFFFF" points="464,284 516,112 562,112 510,284 		"/>
		<path fill="#FFFFFF" d="M442,112l-42,72c-10,20-16,28-20,40l0,0c0-16-2-34-2-44l-4-68h-78v4c20,0,32,10,36,30l16,136h48l98-172
			h-52V112z"/>
		<path fill="#FFFFFF" d="M802,284l-2-26h-58l-12,26h-50l92-170h62l16,170H802L802,284z M798,182c0-12,0-30,0-40l0,0
			c-2,8-14,34-20,46l-18,38h40L798,182L798,182z"/>
		<path fill="#FFFFFF" d="M610,288c-32,0-54-10-70-20l22-34c14,8,24,16,50,16c8,0,16-2,20-10c6-12-2-18-20-28l-8-6
			c-26-18-38-36-26-66c8-20,30-34,64-34c24,0,46,10,60,20l-26,30c-12-10-24-16-36-16c-10,0-18,4-20,8c-4,10,2,16,16,24l10,6
			c32,20,40,42,32,62C666,280,638,288,610,288L610,288z"/>
	</g>
</g>
</svg>
